<svg id="Capa_1" xmlns="http://www.w3.org/2000/svg" width="34.624" height="34.584" viewBox="0 0 34.624 34.584">
  <g id="Grupo_2" data-name="Grupo 2" transform="translate(0 0)">
    <path id="Trazado_64" data-name="Trazado 64" d="M14.7,8.589a4.852,4.852,0,0,1,1.575-1.05,4.614,4.614,0,0,1,1.857-.359,4.744,4.744,0,0,1,1.844.371A4.8,4.8,0,0,1,21.538,8.6a4.827,4.827,0,0,1-1.563,7.89,4.614,4.614,0,0,1-1.857.359,4.744,4.744,0,0,1-1.844-.371,4.8,4.8,0,0,1-1.563-1.05,4.937,4.937,0,0,1-1.05-1.563,4.839,4.839,0,0,1-.371-1.844,5.1,5.1,0,0,1,.359-1.857A4.921,4.921,0,0,1,14.7,8.589ZM19.425,10.7a1.84,1.84,0,0,0-2.613-.013,1.762,1.762,0,0,0-.4.6,1.919,1.919,0,0,0-.141.7,1.868,1.868,0,0,0,.141.7,1.736,1.736,0,0,0,.41.6,1.84,1.84,0,0,0,2.613.013,1.762,1.762,0,0,0,.4-.6,1.919,1.919,0,0,0,.141-.7,1.868,1.868,0,0,0-.141-.7,1.736,1.736,0,0,0-.41-.6Z" transform="translate(3.119 1.378)" fill="#fff"/>
    <path id="Trazado_65" data-name="Trazado 65" d="M33.753,4.958A5.746,5.746,0,0,0,32.318,2.6a5.83,5.83,0,0,0-2.357-1.434A14.411,14.411,0,0,0,15.425,4.727L13.555,6.6a7.208,7.208,0,0,0-4.15-.448A7.1,7.1,0,0,0,5.729,8.1L3.385,10.439A1.5,1.5,0,0,0,2.95,11.5a1.472,1.472,0,0,0,.435,1.05l2.536,2.536a4.4,4.4,0,0,0,.013,2.305,4.488,4.488,0,0,0,1.153,2l.5.5L5.281,21.275a1.672,1.672,0,0,0-.487.461,1.438,1.438,0,0,0-.231.628,1.666,1.666,0,0,0,.064.666,1.372,1.372,0,0,0,.359.564l6.327,6.327a1.563,1.563,0,0,0,.564.359,1.47,1.47,0,0,0,.666.077,1.382,1.382,0,0,0,.628-.231,1.519,1.519,0,0,0,.461-.487l1.383-2.305.5.5A4.49,4.49,0,0,0,19.818,29l2.536,2.536a1.484,1.484,0,0,0,2.1,0L26.8,29.19a7.1,7.1,0,0,0,1.5-7.813l1.87-1.87a14.509,14.509,0,0,0,3.586-14.55ZM29.065,4.01a2.867,2.867,0,0,1,1.153.692,2.731,2.731,0,0,1,.692,1.153,11.422,11.422,0,0,1-2.818,11.527l-8.338,8.338a1.484,1.484,0,0,1-2.1,0L9.2,17.279a1.484,1.484,0,0,1,0-2.1L17.538,6.84A11.464,11.464,0,0,1,29.065,4.01ZM25.889,23.8A4.1,4.1,0,0,1,24.71,27.09L23.417,28.37l-1.05-1.037L25.889,23.8ZM7.843,10.209a4.065,4.065,0,0,1,1.511-.961,4.2,4.2,0,0,1,1.78-.231L7.612,12.54,6.549,11.5l1.294-1.294Zm5.021,14.947-.781,1.306L8.457,22.837l1.306-.781,3.1,3.1Z" transform="translate(0.216 -0.498)" fill="#fff"/>
    <path id="Trazado_66" data-name="Trazado 66" d="M7.634,24.012a1.569,1.569,0,0,0,.333-.487,1.448,1.448,0,0,0,.115-.576,1.493,1.493,0,0,0-.115-.576,1.53,1.53,0,0,0-.32-.487,1.342,1.342,0,0,0-.487-.32,1.5,1.5,0,0,0-1.153,0,1.569,1.569,0,0,0-.487.333L1.588,25.83a1.569,1.569,0,0,0-.333.487,1.448,1.448,0,0,0-.115.576,1.493,1.493,0,0,0,.115.576,1.53,1.53,0,0,0,.32.487,1.342,1.342,0,0,0,.487.32,1.5,1.5,0,0,0,1.153,0,1.569,1.569,0,0,0,.487-.333Z" transform="translate(-0.292 5.385)" fill="#fff"/>
    <path id="Trazado_67" data-name="Trazado 67" d="M4.656,19.435a1.484,1.484,0,0,1,0,2.1L3.068,23.124a1.3,1.3,0,0,1-.487.346A1.508,1.508,0,0,1,2,23.6a1.838,1.838,0,0,1-.589-.1,1.531,1.531,0,0,1-.833-.833,1.334,1.334,0,0,1-.1-.589A1.457,1.457,0,0,1,.609,21.5a1.61,1.61,0,0,1,.346-.487L2.53,19.435A1.555,1.555,0,0,1,3.606,19a1.5,1.5,0,0,1,1.05.435Z" transform="translate(-0.478 4.697)" fill="#fff"/>
    <path id="Trazado_68" data-name="Trazado 68" d="M9.584,26.492A1.53,1.53,0,0,0,9.9,26a1.447,1.447,0,0,0,.115-.576A1.472,1.472,0,0,0,9.1,24.045a1.447,1.447,0,0,0-.576-.115,1.531,1.531,0,0,0-1.063.435L5.9,25.954a1.53,1.53,0,0,0-.32.487,1.489,1.489,0,0,0,.32,1.627,1.472,1.472,0,0,0,1.05.435A1.451,1.451,0,0,0,8,28.067l1.588-1.575Z" transform="translate(0.921 6.082)" fill="#fff"/>
  </g>
</svg>
