<svg id="icon_contacto" xmlns="http://www.w3.org/2000/svg" width="35.702" height="35.65" viewBox="0 0 35.702 35.65">
  <path id="Trazado_69" data-name="Trazado 69" d="M14.382,16.15a1.767,1.767,0,1,1,1.278-.495A1.78,1.78,0,0,1,14.382,16.15Z" transform="translate(3.469 3.429)" fill="#fff"/>
  <path id="Trazado_70" data-name="Trazado 70" d="M8.87,16.151a1.78,1.78,0,1,1,1.78-1.755,1.78,1.78,0,0,1-1.78,1.755Z" transform="translate(1.91 3.429)" fill="#fff"/>
  <path id="Trazado_71" data-name="Trazado 71" d="M19.962,16.15a1.767,1.767,0,1,1,1.278-.495A1.78,1.78,0,0,1,19.962,16.15Z" transform="translate(5.035 3.429)" fill="#fff"/>
  <path id="Trazado_72" data-name="Trazado 72" d="M5.387,5.318A17.777,17.777,0,0,1,34.32,24.875a1.921,1.921,0,0,0-.154,1.14l1.563,7.518a1.806,1.806,0,0,1-.474,1.614,1.78,1.78,0,0,1-.6.384,1.639,1.639,0,0,1-.7.128H33.6l-7.608-1.524a2.293,2.293,0,0,0-1.14.154A17.777,17.777,0,0,1,5.3,5.356ZM3.914,20.175a14.2,14.2,0,0,0,19.557,10.81,5.917,5.917,0,0,1,2.216-.461,6.583,6.583,0,0,1,1,.09l5.008,1.012-.973-5.008a5.43,5.43,0,0,1,.371-3.215,14.46,14.46,0,0,0,1.1-6.276A14.241,14.241,0,1,0,3.914,20.175Z" transform="translate(-0.063 -0.083)" fill="#fff"/>
</svg>
