<svg xmlns="http://www.w3.org/2000/svg" width="30.653" height="30.653" viewBox="0 0 30.653 30.653">
  <path id="Plus" d="M1.335,12.081a1.438,1.438,0,0,1-.966-.355A1.39,1.39,0,0,1,0,10.749,1.047,1.047,0,0,1,.368,9.9a1.438,1.438,0,0,1,.966-.355H20.341a1.272,1.272,0,0,1,.92.355,1.17,1.17,0,0,1,.414.933,1.213,1.213,0,0,1-.414.888,1.272,1.272,0,0,1-.92.355Zm9.48,9.594a1.461,1.461,0,0,1-1.058-.4,1.358,1.358,0,0,1-.414-1.021V1.466A1.413,1.413,0,0,1,9.756.4,1.567,1.567,0,0,1,10.815,0a1.394,1.394,0,0,1,1.473,1.421V20.254a1.358,1.358,0,0,1-.414,1.021A1.461,1.461,0,0,1,10.815,21.675Z" transform="translate(15.327) rotate(45)" fill="#fff"/>
</svg>
