<?xml version="1.0" encoding="UTF-8"?><svg id="Capa_1" xmlns="http://www.w3.org/2000/svg" xmlns:xlink="http://www.w3.org/1999/xlink" viewBox="0 0 209 215.77"><defs><style>.cls-1{fill:#fff;}.cls-2{isolation:isolate;}.cls-3{fill:url(#Degradado_sin_nombre_72);}.cls-4{fill:#374e9d;}</style><linearGradient id="Degradado_sin_nombre_72" x1="27.13" y1="178.95" x2="184.87" y2="46.59" gradientUnits="userSpaceOnUse"><stop offset="0" stop-color="#2c4196"/><stop offset=".04" stop-color="#2c4d9e"/><stop offset=".15" stop-color="#2e68b2"/><stop offset=".25" stop-color="#2f7cc0"/><stop offset=".36" stop-color="#2f88c9"/><stop offset=".47" stop-color="#308ccc"/><stop offset=".68" stop-color="#30a2cf"/><stop offset="1" stop-color="#30ccd6"/></linearGradient></defs><path class="cls-3" d="m99.79,165.49h10.62c1.98,0,3.58-1.6,3.58-3.58s-1.6-3.58-3.58-3.58h-10.62c-1.98,0-3.58,1.6-3.58,3.58s1.6,3.58,3.58,3.58Zm2.96-51.42c.68.74,1.63,1.16,2.64,1.16.02,0,.03,0,.05,0,1.02-.01,1.99-.46,2.65-1.23l12.55-14.48c1.29-1.49,1.13-3.75-.36-5.05-1.49-1.3-3.75-1.13-5.05.36l-6.26,7.23v-25.96c0-1.98-1.6-3.58-3.58-3.58s-3.58,1.6-3.58,3.58v26.36l-7.08-7.71c-1.34-1.46-3.6-1.55-5.06-.22-1.46,1.34-1.55,3.6-.22,5.06l13.29,14.48Zm26.63-66.36h-48.56c-11.12,0-20.16,9.05-20.16,20.16v89.8c0,11.12,9.05,20.16,20.16,20.16h48.56c11.12,0,20.16-9.05,20.16-20.16v-89.8c0-11.12-9.05-20.16-20.16-20.16Zm13.01,109.96c0,7.17-5.83,13.01-13.01,13.01h-48.56c-7.17,0-13.01-5.83-13.01-13.01v-4.02h74.58v4.02Zm0-11.18h-74.58v-78.62c0-7.17,5.83-13.01,13.01-13.01h48.56c7.17,0,13.01,5.83,13.01,13.01v78.62ZM106,9.77C49.21,9.77,3,55.98,3,112.77s46.21,103,103,103,103-46.21,103-103S162.79,9.77,106,9.77Zm0,199c-52.93,0-96-43.07-96-96S53.07,16.77,106,16.77s96,43.07,96,96-43.07,96-96,96Zm20.17-94.25c-1.98,0-3.58,1.6-3.58,3.58,0,2.42-1.97,4.39-4.39,4.39h-25.29c-2.42,0-4.39-1.97-4.39-4.39,0-1.98-1.6-3.58-3.58-3.58s-3.58,1.6-3.58,3.58c0,6.37,5.18,11.55,11.55,11.55h25.29c6.37,0,11.55-5.18,11.55-11.55,0-1.98-1.6-3.58-3.58-3.58Z"/><circle id="Elipse_48" class="cls-4" cx="33.47" cy="33.47" r="33.47"/><g id="_1" class="cls-2"><g class="cls-2"><path class="cls-1" d="m33.72,53.6c-.84,0-1.54-.27-2.09-.8-.55-.53-.82-1.2-.82-2.01v-29.48l.71.99-5.11,3.58c-.44.37-.97.55-1.6.55-.73,0-1.38-.28-1.95-.85-.57-.57-.85-1.24-.85-2.01,0-.95.48-1.74,1.43-2.36l8.36-5.56c.33-.22.69-.37,1.07-.44.38-.07.74-.11,1.07-.11.84,0,1.52.27,2.04.8.51.53.77,1.2.77,2.01v32.89c0,.81-.28,1.48-.85,2.01-.57.53-1.29.8-2.17.8Z"/></g></g></svg>