<?xml version="1.0" encoding="UTF-8"?><svg id="Capa_1" xmlns="http://www.w3.org/2000/svg" xmlns:xlink="http://www.w3.org/1999/xlink" viewBox="0 0 209 215.77"><defs><style>.cls-1{fill:#fff;}.cls-2{isolation:isolate;}.cls-3{fill:url(#Degradado_sin_nombre_72);}.cls-4{fill:#374e9d;}</style><linearGradient id="Degradado_sin_nombre_72" x1="25.63" y1="178.95" x2="183.37" y2="46.59" gradientUnits="userSpaceOnUse"><stop offset="0" stop-color="#2c4196"/><stop offset=".04" stop-color="#2c4d9e"/><stop offset=".15" stop-color="#2e68b2"/><stop offset=".25" stop-color="#2f7cc0"/><stop offset=".36" stop-color="#2f88c9"/><stop offset=".47" stop-color="#308ccc"/><stop offset=".68" stop-color="#30a2cf"/><stop offset="1" stop-color="#30ccd6"/></linearGradient></defs><path class="cls-3" d="m140.27,121.73c.9-1.76.21-3.92-1.55-4.82-.37-.19-6.15-3.11-14.91-5.29,10.07-5.93,16.85-16.88,16.85-29.39,0-18.79-15.29-34.08-34.08-34.08s-34.08,15.29-34.08,34.08c0,12.28,6.54,23.07,16.31,29.07-13,3.48-26.97,12.04-37.85,30.74-3.2,5.49-10.08,19.22-5.01,28.03,2.67,4.65,7.91,7.01,15.57,7.01h32.32c1.98,0,3.58-1.6,3.58-3.58s-1.6-3.58-3.58-3.58h-32.32c-4.91,0-8.06-1.15-9.37-3.42-2.62-4.56,1.05-14.09,5-20.86,11.57-19.88,28.12-29.71,49.23-29.25,16.08.36,28.95,6.83,29.08,6.89,1.76.9,3.91.2,4.81-1.55Zm-60.6-39.5c0-14.84,12.08-26.92,26.92-26.92s26.92,12.08,26.92,26.92-12.08,26.92-26.92,26.92-26.92-12.08-26.92-26.92ZM104.5,9.77C47.71,9.77,1.5,55.98,1.5,112.77s46.21,103,103,103,103-46.21,103-103S161.29,9.77,104.5,9.77Zm0,199c-52.93,0-96-43.07-96-96S51.57,16.77,104.5,16.77s96,43.07,96,96-43.07,96-96,96Zm70.18-61.92l-21.8-18.89c-1.49-1.29-3.75-1.13-5.05.36-1.29,1.49-1.13,3.75.36,5.05l14.55,12.61h-34.19c-1.98,0-3.58,1.6-3.58,3.58s1.6,3.58,3.58,3.58h34.59l-15.04,13.81c-1.46,1.34-1.55,3.6-.22,5.06.71.77,1.67,1.16,2.64,1.16.86,0,1.73-.31,2.42-.94l21.8-20.02c.75-.69,1.17-1.67,1.16-2.69-.01-1.02-.46-1.98-1.23-2.65Z"/><circle id="Elipse_48" class="cls-4" cx="33.47" cy="33.47" r="33.47"/><g id="_1" class="cls-2"><g class="cls-2"><path class="cls-1" d="m43.31,46.48c.73,0,1.35.25,1.84.74.5.49.74,1.11.74,1.84s-.25,1.34-.74,1.82-1.11.71-1.84.71h-19.3c-.81,0-1.45-.24-1.93-.71-.48-.48-.71-1.12-.71-1.92,0-.73.26-1.39.77-1.98l12.27-13.25c1.58-1.69,2.8-3.36,3.66-5,.86-1.65,1.29-3.1,1.29-4.34,0-2.02-.6-3.65-1.81-4.9-1.21-1.25-2.81-1.87-4.79-1.87-.84,0-1.7.19-2.56.58-.86.38-1.67.9-2.42,1.54-.75.64-1.4,1.38-1.95,2.23-.37.51-.73.84-1.1.99-.37.15-.71.22-1.04.22-.7,0-1.33-.25-1.9-.74-.57-.5-.85-1.07-.85-1.73,0-.51.17-1.01.5-1.48.33-.48.75-.97,1.26-1.49.81-.99,1.79-1.88,2.94-2.67,1.15-.79,2.37-1.4,3.66-1.84,1.28-.44,2.55-.66,3.79-.66,2.42,0,4.52.48,6.3,1.43,1.78.95,3.15,2.29,4.12,4.01.97,1.72,1.46,3.76,1.46,6.11,0,1.98-.6,4.17-1.79,6.57-1.19,2.4-2.85,4.76-4.98,7.07l-8.52,9.29-.6-.55h14.24Z"/></g></g></svg>