<svg xmlns="http://www.w3.org/2000/svg" xmlns:xlink="http://www.w3.org/1999/xlink" version="1.1" width="1000" height="1000" viewBox="0 0 1000 1000" xml:space="preserve">
<desc>Created with Fabric.js 3.5.0</desc>
<defs>
</defs>
<rect x="0" y="0" width="100%" height="100%" fill="rgba(255,255,255,0)"/>
<g transform="matrix(50.955 0 0 50.955 500.0003 500.0003)" id="327754">
<path style="stroke: none; stroke-width: 1; stroke-dasharray: none; stroke-linecap: butt; stroke-dashoffset: 0; stroke-linejoin: miter; stroke-miterlimit: 4; is-custom-font: none; font-file-url: none; fill: rgb(255,214,0); fill-rule: nonzero; opacity: 1;" vector-effect="non-scaling-stroke" transform=" translate(-10.3575, -10.5251)" d="M 10.733 16.2 l 4.3 2.727 a 0.71 0.71 0 0 0 1.065 -0.81 l -1.243 -4.893 a 0.753 0.753 0 0 1 0.241 -0.753 l 3.856 -3.21 a 0.71 0.71 0 0 0 -0.4 -1.307 l -5.035 -0.327 a 0.71 0.71 0 0 1 -0.376 -0.135 a 0.767 0.767 0 0 1 -0.241 -0.32 L 11.017 2.457 a 0.71 0.71 0 0 0 -1.321 0 L 8.23 6.143 L 7.815 7.186 a 0.767 0.767 0 0 1 -0.241 0.32 a 0.71 0.71 0 0 1 -0.376 0.135 l -5.035 0.327 a 0.71 0.71 0 0 0 -0.4 1.307 l 3.856 3.21 a 0.753 0.753 0 0 1 0.241 0.753 L 4.676 17.774 a 0.859 0.859 0 0 0 1.278 0.973 L 9.981 16.2 S 10.5 16.061 10.733 16.2 Z" stroke-linecap="round"/>
</g>
</svg>