<svg xmlns="http://www.w3.org/2000/svg" width="16.071" height="14.786" viewBox="0 0 16.071 14.786">
  <g id="icon_checklist" transform="translate(0 -0.122)">
    <path id="Trazado_76" data-name="Trazado 76" d="M22.328.658A1.1,1.1,0,0,0,20.84.266a30.368,30.368,0,0,0-7.384,7.462A14.78,14.78,0,0,0,12.543,5.6c-.65-1.242-2.527-.145-1.88,1.1A12.041,12.041,0,0,1,11.9,10.612a1.069,1.069,0,0,0,.9.783,1.112,1.112,0,0,0,1.085-.517A31.212,31.212,0,0,1,21.94,2.162a1.112,1.112,0,0,0,.388-1.5Z" transform="translate(-6.405 0)" fill="#308ecd"/>
    <path id="Trazado_77" data-name="Trazado 77" d="M12.617,6.1c-.027.027-.059.043-.086.067A5.562,5.562,0,1,1,7.278,2.422a5.484,5.484,0,0,1,2.863.819c.129-.161.262-.313.392-.466.239-.251.49-.486.74-.725,0-.027.031-.055.043-.078A7.18,7.18,0,0,0,7.278.71a7.278,7.278,0,1,0,7.278,7.278,7.149,7.149,0,0,0-.682-3.032C13.459,5.344,13.044,5.728,12.617,6.1Z" transform="translate(0 -0.357)" fill="#308ecd"/>
  </g>
</svg>
