<?xml version="1.0" encoding="UTF-8"?><svg id="Capa_1" xmlns="http://www.w3.org/2000/svg" viewBox="0 0 50 100"><defs><style>.cls-1{fill:#308ecd;}</style></defs><path class="cls-1" d="m9.99,95.24c.96,0,1.91-.21,2.77-.62.87-.41,1.63-1.02,2.23-1.77l31-38.77c.94-1.16,1.46-2.61,1.46-4.1s-.52-2.95-1.46-4.1L13.91,7.1c-1.09-1.32-2.66-2.15-4.35-2.31-1.7-.16-3.39.37-4.7,1.47-1.31,1.1-2.14,2.67-2.29,4.38-.16,1.71.37,3.41,1.46,4.73l28.69,34.64L4.98,84.64c-.78.95-1.28,2.1-1.44,3.33-.15,1.22.05,2.47.57,3.58.53,1.11,1.36,2.05,2.4,2.71,1.04.65,2.25.99,3.47.98Z"/></svg>