<svg xmlns="http://www.w3.org/2000/svg" width="28.835" height="31.588" viewBox="0 0 28.835 31.588">
  <path id="icon_PlayStore" d="M2.46,31.588a2.384,2.384,0,0,1-.878-.151l14.145-14.15,4.682,4.687L4.155,31.107a3.509,3.509,0,0,1-1.695.481ZM.416,30.42A3.337,3.337,0,0,1,0,28.716V2.891A3.741,3.741,0,0,1,.177,1.735L14.636,16.2.41,30.423l.005,0Zm21.389-9.234L16.816,16.2l5.5-5.5,4.888,2.745a2.766,2.766,0,0,1,1.63,2.352A2.764,2.764,0,0,1,27.2,18.149ZM15.727,15.1,1.08.458A2.34,2.34,0,0,1,2.469,0,3.577,3.577,0,0,1,4.146.486L20.92,9.914,15.728,15.1Z" fill="#308ecd"/>
</svg>
