<svg xmlns="http://www.w3.org/2000/svg" width="17.85" height="17.04" viewBox="0 0 17.85 17.04">
  <path id="icon_Tarifas" d="M10.733,16.2l4.3,2.727a.71.71,0,0,0,1.065-.81l-1.243-4.893a.753.753,0,0,1,.241-.753l3.856-3.21a.71.71,0,0,0-.4-1.307l-5.035-.327a.71.71,0,0,1-.376-.135.767.767,0,0,1-.241-.32L11.017,2.457a.71.71,0,0,0-1.321,0L8.23,6.143,7.815,7.186a.767.767,0,0,1-.241.32.71.71,0,0,1-.376.135l-5.035.327a.71.71,0,0,0-.4,1.307l3.856,3.21a.753.753,0,0,1,.241.753L4.676,17.774a.859.859,0,0,0,1.278.973L9.981,16.2S10.5,16.061,10.733,16.2Z" transform="translate(-1.432 -2.008)" fill="#fff"/>
</svg>
