<svg xmlns="http://www.w3.org/2000/svg" width="46.518" height="46.532" viewBox="0 0 46.518 46.532">
  <path id="icon_WhatsApp" d="M23.255,0a23.31,23.31,0,0,0-20.4,34.5L.948,41.142a3.6,3.6,0,0,0,0,1.877,3.687,3.687,0,0,0,.93,1.661,3.637,3.637,0,0,0,1.661.93,3.654,3.654,0,0,0,1.893,0l6.644-1.91A23.276,23.276,0,1,0,23.255,0Zm0,42.919a19.616,19.616,0,0,1-9.966-2.741,1.4,1.4,0,0,0-.681-.233,1.661,1.661,0,0,0-.714,0L4.4,42.106,6.512,34.7a1.86,1.86,0,0,0-.183-1.478,19.682,19.682,0,1,1,16.925,9.7ZM35,26.575l-4.584-2.624a3.637,3.637,0,0,0-1.81-.465A3.4,3.4,0,0,0,26.809,24l-2.658,1.578a9,9,0,0,1-3.322-3.322L22.491,19.6a3.571,3.571,0,0,0,.515-1.794A3.82,3.82,0,0,0,22.541,16l-2.608-4.485a3.438,3.438,0,0,0-1.212-1.229,3.521,3.521,0,0,0-1.661-.448A8.089,8.089,0,0,0,9,17.855,19.662,19.662,0,0,0,28.686,37.621h0a8.056,8.056,0,0,0,8.022-8.039,3.322,3.322,0,0,0-1.661-2.89Zm-6.361,7.358a16.074,16.074,0,0,1-14.9-9.949,16.377,16.377,0,0,1-1.212-6.179,4.451,4.451,0,0,1,4.335-4.435L19.4,17.822,17.292,21.31a1.794,1.794,0,0,0-.249.814,1.827,1.827,0,0,0,.149.847,12.623,12.623,0,0,0,6.295,6.3,1.827,1.827,0,0,0,.847.149,1.794,1.794,0,0,0,.814-.249l3.488-2.109L33.088,29.6A4.451,4.451,0,0,1,28.636,33.934Z" transform="translate(0.002)" fill="#2f8dcc"/>
</svg>
