<?xml version="1.0" encoding="UTF-8"?><svg id="Capa_1" xmlns="http://www.w3.org/2000/svg" xmlns:xlink="http://www.w3.org/1999/xlink" viewBox="0 0 209 215.77"><defs><style>.cls-1{fill:#fff;}.cls-2{isolation:isolate;}.cls-3{fill:url(#Degradado_sin_nombre_72);}.cls-4{fill:#374e9d;}</style><linearGradient id="Degradado_sin_nombre_72" x1="25.63" y1="178.95" x2="183.37" y2="46.59" gradientUnits="userSpaceOnUse"><stop offset="0" stop-color="#2c4196"/><stop offset=".04" stop-color="#2c4d9e"/><stop offset=".15" stop-color="#2e68b2"/><stop offset=".25" stop-color="#2f7cc0"/><stop offset=".36" stop-color="#2f88c9"/><stop offset=".47" stop-color="#308ccc"/><stop offset=".68" stop-color="#30a2cf"/><stop offset="1" stop-color="#30ccd6"/></linearGradient></defs><path class="cls-3" d="m110.89,87.62c-1.4-1.4-3.66-1.4-5.06,0l-11.6,11.6-4.1-3.97c-1.42-1.38-3.68-1.34-5.06.08-1.38,1.42-1.34,3.69.08,5.06l6.63,6.43c.69.67,1.59,1.01,2.49,1.01s1.83-.35,2.53-1.05l14.09-14.09c1.4-1.4,1.4-3.66,0-5.06Zm66.47,49.61l-9.35-22.44c-1.02-2.45-2.95-4.36-5.42-5.37-2.47-1.01-5.19-1-7.65.03-2.26.94-3.99,2.62-5.03,4.64-2.25-.71-4.65-.61-6.85.31-.21.09-.41.19-.61.29v-46.82c0-11.12-9.05-20.16-20.16-20.16h-48.56c-11.12,0-20.16,9.05-20.16,20.16v89.8c0,11.12,9.05,20.16,20.16,20.16h48.56c4.93,0,9.72-1.85,13.39-5.11,4.66,1.64,9.25,2.48,13.62,2.48,7.58,0,14.52-2.46,20.12-7.38,8.92-7.83,12.19-20.41,7.95-30.59ZM60.71,67.87c0-7.17,5.83-13.01,13.01-13.01h48.56c7.17,0,13.01,5.83,13.01,13.01v50.72c-1.39-.04-2.79.21-4.11.77-.91.38-1.73.88-2.46,1.48l-6.91-16.57c.77-2.44,1.19-4.98,1.19-7.56,0-13.79-11.22-25-25-25s-25,11.22-25,25,11.22,25,25,25c2.98,0,5.95-.54,8.73-1.57l7.22,17.33-.24-.14c-2.29-1.39-4.98-1.8-7.58-1.17-2.6.64-4.79,2.25-6.18,4.53-1.07,1.77-1.56,3.78-1.43,5.8h-37.82v-78.62Zm42.35,43.47l.91,2.18c-1.9.68-3.9,1.03-5.97,1.03-9.84,0-17.84-8-17.84-17.84s8-17.84,17.84-17.84,17.84,8,17.84,17.84c0,.47-.02.94-.06,1.41-2.38-.88-4.97-.85-7.33.14-2.47,1.03-4.39,2.96-5.41,5.43-1.02,2.47-1.01,5.2.02,7.66Zm19.22,59.34h-48.56c-7.17,0-13.01-5.83-13.01-13.01v-4.02h41.51c.35.28.72.55,1.11.79l23.04,13.97c.56.32,1.11.61,1.67.91-1.77.88-3.72,1.35-5.76,1.35Zm42.41-8.23c-8.69,7.62-21.34,7.54-34.68-.18l-22.98-13.94c-.65-.4-1.11-1.02-1.29-1.76s-.06-1.51.33-2.16c.4-.65,1.02-1.11,1.76-1.29.74-.18,1.51-.06,2.16.33l9.62,5.83c1.32.8,3.02.66,4.19-.35,1.17-1.01,1.57-2.66.97-4.09l-15.11-36.25c-.29-.7-.3-1.48,0-2.19.29-.71.84-1.26,1.54-1.55.7-.29,1.48-.29,2.19,0,.71.29,1.26.84,1.55,1.54l10.74,25.77c.04.1.06.2.1.29l3.05,7.31c.48,1.14,1.48,1.9,2.6,2.12,0,0,0,0,.01,0,.23.04.45.08.69.08.46,0,.92-.09,1.38-.28,0,0,0,0,0,0,0,0,0,0,.01,0,1.82-.76,2.69-2.86,1.93-4.68l-3.11-7.46c-.5-1.41.18-2.99,1.59-3.58.7-.29,1.48-.3,2.19,0,.7.29,1.24.82,1.52,1.49l.02.04s0,0,0,.01l3.05,7.31c.09.21.19.4.31.58.03.05.07.1.11.15.09.13.19.25.3.36.04.05.09.09.13.14.14.13.28.25.43.35.02.01.04.03.06.04.17.11.34.2.53.28.07.03.14.05.2.08.13.05.26.09.39.12.08.02.15.04.23.05.16.03.32.04.48.05.28.01.55,0,.83-.06.23-.05.46-.11.69-.21,1.82-.76,2.69-2.86,1.93-4.68l-1.83-4.39-1.22-2.93c-.29-.7-.29-1.48,0-2.18.29-.71.84-1.26,1.54-1.55.7-.29,1.48-.3,2.19,0,.7.29,1.24.82,1.52,1.49l.02.04s0,0,0,.01l3.05,7.31c.14.34.34.64.57.91.86,1.03,2.23,1.51,3.56,1.19.18-.04.37-.09.55-.17,1.82-.76,2.69-2.86,1.93-4.68l-3.05-7.31c-.61-1.45.08-3.13,1.54-3.74.7-.29,1.48-.3,2.19,0,.7.29,1.24.82,1.52,1.49l9.35,22.44c3.08,7.39.59,16.62-6.06,22.46ZM104.5,9.77C47.71,9.77,1.5,55.98,1.5,112.77s46.21,103,103,103,103-46.21,103-103S161.29,9.77,104.5,9.77Zm0,199c-52.93,0-96-43.07-96-96S51.57,16.77,104.5,16.77s96,43.07,96,96-43.07,96-96,96Zm-1.19-50.44h-10.62c-1.98,0-3.58,1.6-3.58,3.58s1.6,3.58,3.58,3.58h10.62c1.98,0,3.58-1.6,3.58-3.58s-1.6-3.58-3.58-3.58Z"/><circle id="Elipse_48" class="cls-4" cx="33.47" cy="33.47" r="33.47"/><g id="_1" class="cls-2"><g class="cls-2"><path class="cls-1" d="m23.57,44.56c.29,0,.6.05.93.14.33.09.7.28,1.1.58.66.59,1.46,1.07,2.39,1.46.94.38,2.01.58,3.22.58,1.36,0,2.62-.32,3.79-.96,1.17-.64,2.13-1.55,2.86-2.72.73-1.17,1.1-2.57,1.1-4.18s-.35-3-1.04-4.04c-.7-1.04-1.6-1.83-2.7-2.37-1.1-.53-2.25-.8-3.46-.8-.7,0-1.28.06-1.76.19-.48.13-.93.26-1.38.39-.44.13-.92.19-1.43.19-.7,0-1.25-.25-1.65-.74-.4-.5-.6-1.09-.6-1.79,0-.44.09-.83.27-1.16.18-.33.44-.7.77-1.1l10.17-10.89,1.21,1.1h-14.57c-.73,0-1.35-.25-1.84-.74s-.74-1.11-.74-1.84c0-.7.25-1.28.74-1.76s1.11-.71,1.84-.71h17.38c.95,0,1.66.27,2.12.82.46.55.69,1.19.69,1.93,0,.4-.1.79-.3,1.15-.2.37-.45.71-.74,1.04l-10.23,11-1.38-1.48c.29-.15.79-.29,1.49-.44.7-.15,1.26-.22,1.7-.22,2.09,0,3.97.53,5.64,1.59,1.67,1.06,2.97,2.48,3.9,4.26.94,1.78,1.4,3.79,1.4,6.02,0,2.68-.6,5-1.81,6.96s-2.89,3.47-5.03,4.54c-2.15,1.06-4.61,1.59-7.4,1.59-1.39,0-2.78-.19-4.15-.58s-2.56-.94-3.55-1.68c-.62-.37-1.04-.76-1.26-1.18-.22-.42-.33-.83-.33-1.24,0-.7.25-1.36.74-1.98.5-.62,1.13-.93,1.9-.93Z"/></g></g></svg>