<?xml version="1.0" encoding="UTF-8"?><svg id="Capa_1" xmlns="http://www.w3.org/2000/svg" xmlns:xlink="http://www.w3.org/1999/xlink" viewBox="0 0 209 215.77"><defs><style>.cls-1{fill:#fff;}.cls-2{isolation:isolate;}.cls-3{fill:url(#Degradado_sin_nombre_72);}.cls-4{fill:#374e9d;}</style><linearGradient id="Degradado_sin_nombre_72" x1="25.63" y1="178.95" x2="183.37" y2="46.59" gradientUnits="userSpaceOnUse"><stop offset="0" stop-color="#2c4196"/><stop offset=".04" stop-color="#2c4d9e"/><stop offset=".15" stop-color="#2e68b2"/><stop offset=".25" stop-color="#2f7cc0"/><stop offset=".36" stop-color="#2f88c9"/><stop offset=".47" stop-color="#308ccc"/><stop offset=".68" stop-color="#30a2cf"/><stop offset="1" stop-color="#30ccd6"/></linearGradient></defs><path class="cls-3" d="m134.3,94.5c10.88,0,19.74-8.85,19.74-19.74s-8.85-19.74-19.74-19.74-19.74,8.85-19.74,19.74c0,1.88.28,3.69.77,5.42l-42.69,21.43c-3.59-4.93-9.39-8.16-15.95-8.16-10.88,0-19.74,8.85-19.74,19.74s8.85,19.74,19.74,19.74c6.55,0,12.35-3.22,15.94-8.15l42.7,21.54c-.49,1.73-.78,3.54-.78,5.43,0,10.88,8.85,19.74,19.74,19.74s19.74-8.85,19.74-19.74-8.85-19.74-19.74-19.74c-6.44,0-12.16,3.12-15.76,7.91l-42.8-21.59c.44-1.64.7-3.35.7-5.13s-.26-3.49-.7-5.12l42.8-21.49c3.6,4.79,9.32,7.91,15.77,7.91Zm0-32.32c6.94,0,12.58,5.64,12.58,12.58s-5.64,12.58-12.58,12.58-12.58-5.64-12.58-12.58,5.64-12.58,12.58-12.58Zm-77.6,63.59c-6.94,0-12.58-5.64-12.58-12.58s5.64-12.58,12.58-12.58,12.58,5.64,12.58,12.58-5.64,12.58-12.58,12.58Zm77.6,13.39c6.94,0,12.58,5.64,12.58,12.58s-5.64,12.58-12.58,12.58-12.58-5.64-12.58-12.58,5.64-12.58,12.58-12.58ZM104.5,9.77C47.71,9.77,1.5,55.98,1.5,112.77s46.21,103,103,103,103-46.21,103-103S161.29,9.77,104.5,9.77Zm0,199c-52.93,0-96-43.07-96-96S51.57,16.77,104.5,16.77s96,43.07,96,96-43.07,96-96,96Z"/><circle id="Elipse_48" class="cls-4" cx="33.47" cy="33.47" r="33.47"/><g id="_1" class="cls-2"><g class="cls-2"><path class="cls-1" d="m36.86,51.6c-.77,0-1.41-.27-1.92-.8-.51-.53-.77-1.2-.77-2.01v-28l.99.33-11.88,15.18-.27-.71h20.02c.73,0,1.35.25,1.84.74.49.5.74,1.11.74,1.84s-.25,1.28-.74,1.76c-.5.48-1.11.71-1.84.71h-23.81c-.66,0-1.28-.27-1.87-.8-.59-.53-.88-1.16-.88-1.9s.24-1.32.71-1.87l17.49-21.89c.26-.37.59-.64.99-.82.4-.18.83-.28,1.27-.28.81,0,1.47.27,1.98.8.51.53.77,1.2.77,2.01v32.89c0,.81-.27,1.48-.82,2.01-.55.53-1.21.8-1.98.8Z"/></g></g></svg>