<svg xmlns="http://www.w3.org/2000/svg" width="45.876" height="36.541" viewBox="0 0 45.876 36.541">
  <path id="icon_email" d="M39.638,3H6.618A6.411,6.411,0,0,0,.19,9.445V33.1a6.411,6.411,0,0,0,6.428,6.445h33.02A6.411,6.411,0,0,0,46.065,33.1V9.445A6.411,6.411,0,0,0,39.638,3Zm.349,3.438L23.128,19.128,6.269,6.438ZM42.644,33.1A3.006,3.006,0,0,1,39.638,36.1H6.618A3.006,3.006,0,0,1,3.612,33.1V8.747L22.1,22.649a1.744,1.744,0,0,0,2.06,0l18.486-13.9Z" transform="translate(-0.19 -3)" fill="#2f8dcc"/>
</svg>
