<?xml version="1.0" encoding="utf-8"?>
<!-- Generator: Adobe Illustrator 27.2.0, SVG Export Plug-In . SVG Version: 6.00 Build 0)  -->
<svg version="1.1" id="Capa_1" xmlns="http://www.w3.org/2000/svg" xmlns:xlink="http://www.w3.org/1999/xlink" x="0px" y="0px"
	 viewBox="0 0 111.6 70.1" style="enable-background:new 0 0 111.6 70.1;" xml:space="preserve">
<style type="text/css">
	.st0{fill:#FFFFFF;}
	.st1{fill:#2F8DCC;}
	.st2{fill:#F2F2F2;}
	.st3{fill:#A0616A;}
	.st4{fill:#2F2E41;}
	.st5{fill:#3F3D56;}
</style>
<g>
	<path class="st0" d="M97,57.6c0,2.1-1.7,3.8-3.8,3.8H18.3c-2.1,0-3.8-1.7-3.8-3.8V4.1c0-2.1,1.7-3.8,3.8-3.8h74.8
		c2.1,0,3.8,1.7,3.8,3.8L97,57.6L97,57.6z"/>
	<path class="st1" d="M97.2,4.1v9.4H97v-0.1H14.5v0.1h-0.2V4.1c0-2.3,1.8-4.1,4-4.1h74.8C95.4,0,97.2,1.8,97.2,4.1z"/>
	<circle class="st0" cx="31" cy="6.7" r="2.5"/>
	<circle class="st0" cx="80.4" cy="6.7" r="2.5"/>
	<path class="st1" d="M38.1,34.2H23.5c-1.3,0-2.3-1-2.3-2.3V25c0-1.3,1-2.3,2.3-2.3h14.6c1.3,0,2.3,1,2.3,2.3v6.9
		C40.5,33.1,39.4,34.2,38.1,34.2z"/>
	<path class="st1" d="M63.1,34.2H48.4c-1.3,0-2.3-1-2.3-2.3V25c0-1.3,1-2.3,2.3-2.3h14.7c1.3,0,2.3,1,2.3,2.3v6.9
		C65.4,33.1,64.4,34.2,63.1,34.2z"/>
	<path class="st2" d="M63.1,52.1H48.4c-1.3,0-2.4-1.1-2.4-2.4v-6.9c0-1.3,1.1-2.4,2.4-2.4h14.7c1.3,0,2.4,1.1,2.4,2.4v6.9
		C65.5,51,64.4,52.1,63.1,52.1z"/>
	<path class="st2" d="M38.1,52.1H23.4c-1.3,0-2.4-1.1-2.4-2.4v-6.9c0-1.3,1.1-2.4,2.4-2.4h14.7c1.3,0,2.4,1.1,2.4,2.4v6.9
		C40.5,51,39.4,52.1,38.1,52.1z"/>
	<path class="st2" d="M88,52.1H73.4c-1.3,0-2.4-1.1-2.4-2.4v-6.9c0-1.3,1.1-2.4,2.4-2.4h14.7c1.3,0,2.4,1.1,2.4,2.4v6.9
		C90.4,51,89.4,52.1,88,52.1z"/>
	<path class="st2" d="M88,34.2H73.4c-1.3,0-2.4-1.1-2.4-2.4v-6.9c0-1.3,1.1-2.4,2.4-2.4h14.7c1.3,0,2.4,1.1,2.4,2.4v6.9
		C90.4,33.1,89.4,34.2,88,34.2z"/>
	<circle class="st0" cx="30.8" cy="28.4" r="4"/>
	<path class="st1" d="M30.4,29.9c-0.1,0-0.2,0-0.2-0.1l0,0l-0.9-0.7c-0.2-0.1-0.2-0.4-0.1-0.6s0.4-0.2,0.6-0.1l0,0l0.6,0.5l1.4-1.9
		c0.1-0.2,0.4-0.2,0.6-0.1l0,0l0,0l0,0c0.2,0.1,0.2,0.4,0.1,0.6l-1.7,2.2C30.7,29.8,30.5,29.9,30.4,29.9z"/>
	<circle class="st0" cx="55.8" cy="28.3" r="4"/>
	<path class="st1" d="M55.4,29.9c-0.1,0-0.2,0-0.2-0.1l0,0l-1-0.8c-0.2-0.1-0.2-0.4-0.1-0.6s0.4-0.2,0.6-0.1l0,0l0.6,0.5l1.4-1.9
		c0.1-0.2,0.4-0.2,0.6-0.1l0,0l0,0l0,0c0.2,0.1,0.2,0.4,0.1,0.6l-1.7,2.2C55.7,29.8,55.6,29.9,55.4,29.9z"/>
	<path class="st3" d="M82.7,47.1c0.5-0.5,0.5-1.4-0.1-1.9c-0.1-0.1-0.1-0.1-0.2-0.1l-2.2-11.9l-2.7,1l3,11.3
		c-0.4,0.6-0.1,1.5,0.5,1.8C81.6,47.7,82.3,47.6,82.7,47.1L82.7,47.1z"/>
	<path class="st3" d="M61.2,29c0,0.1,0,0.1,0,0.2l5.2,4l1.5-0.6l1.2,2.1L66.6,36c-0.4,0.2-0.9,0.1-1.3-0.2l-5.2-5.3
		c-0.8,0.2-1.5-0.3-1.7-1.1c-0.2-0.8,0.3-1.5,1.1-1.7s1.5,0.3,1.7,1.1C61.1,28.9,61.2,29,61.2,29L61.2,29z"/>
	<polygon class="st3" points="73.4,68.1 71.9,68.1 71.2,63.5 73.4,63.5 	"/>
	<path class="st4" d="M73.8,69.6h-4.9v-0.1c0-1,0.8-1.9,1.9-1.9l0,0l0,0h3V69.6z"/>
	<polygon class="st3" points="79.1,68.1 77.6,68.1 76.9,63.5 79.1,63.5 	"/>
	<path class="st4" d="M79.5,69.6h-4.9v-0.1c0-1,0.8-1.9,1.9-1.9l0,0l0,0h3V69.6z"/>
	<path class="st4" d="M71.6,67.2c-0.3,0-0.5-0.2-0.6-0.5L69.7,49h0.1l9.1-0.7v0.1l0.7,18.3c0,0.3-0.2,0.6-0.5,0.6l0,0h-1.8
		c-0.3,0-0.5-0.2-0.5-0.5L74.3,52c0,0,0-0.1-0.1-0.1c0,0-0.1,0-0.1,0.1L74,66.6c0,0.3-0.2,0.5-0.5,0.5L71.6,67.2L71.6,67.2z"/>
	<circle class="st3" cx="73.1" cy="23.6" r="3"/>
	<path class="st5" d="M73.7,50.1c-1.3,0-2.6-0.2-3.9-0.5c-0.3-0.1-0.4-0.3-0.4-0.6c0.4-6.1,0.5-10.9-0.4-14.2
		c-0.4-1.4-0.2-2.9,0.5-4c1-1.8,2.8-2.8,4.7-2.8l0,0c0.1,0,0.2,0,0.3,0c2.9,0.2,5.2,2.8,5.1,5.9L79,48.7c0,0.2-0.1,0.4-0.3,0.5
		C77.1,49.8,75.4,50.1,73.7,50.1z"/>
	<path class="st5" d="M69.6,36l-2.3-2.8c-0.2-0.3-0.2-0.8,0.1-1c0,0,0.1,0,0.1-0.1l3.1-1.8c0.8-0.7,2.1-0.6,2.8,0.3
		c0.7,0.8,0.6,2.1-0.3,2.8L70.6,36C70.4,36.3,69.9,36.3,69.6,36C69.6,36.1,69.6,36,69.6,36L69.6,36z"/>
	<path class="st5" d="M76.7,35.7c-0.2-0.1-0.3-0.2-0.4-0.4l-1-3.4c-0.5-1,0-2.2,0.9-2.6c1-0.5,2.2,0,2.6,0.9l2,3
		c0.2,0.3,0.1,0.8-0.2,1c0,0-0.1,0-0.1,0.1l-3.2,1.5C77.1,35.7,76.9,35.7,76.7,35.7z"/>
	<path class="st4" d="M74.6,26.1l-2.2-0.5c-0.2-0.1-0.5-0.2-0.5-0.4c0-0.3,0.4-0.5,0.4-0.9c0-0.3-0.5-0.3-0.8-0.4
		c-0.6-0.2-0.9-0.8-0.7-1.4c-0.3,0.5-1.1,0.5-1.5,0.1s-0.5-1-0.2-1.5c0.3-0.5,0.8-0.8,1.3-0.9c0.6-0.1,1.1,0,1.6,0.3
		c0-0.3,0.5-0.5,0.8-0.5c1.5,0,2.8,1,3.3,2.4c0.4,1.4,0.1,2.9-1.1,3.7L74.6,26.1z"/>
	<path class="st5" d="M97.2,69.6h-47c-0.1,0-0.1-0.1-0.1-0.1c0-0.1,0.1-0.1,0.1-0.1h47C97.3,69.4,97.3,69.5,97.2,69.6
		C97.4,69.6,97.3,69.6,97.2,69.6z"/>
</g>
</svg>
