<svg xmlns="http://www.w3.org/2000/svg" width="111.619" height="70.093" viewBox="0 0 111.619 70.093">
  <g id="Mesa_de_trabajo_31_copia_2" data-name="Mesa de trabajo 31 copia 2" transform="translate(0)">
    <path id="Trazado_78" data-name="Trazado 78" d="M38.355,76.594l1.154-3.754a12.646,12.646,0,0,0-5.058-3.39c1.89,3.141.062,7.224.825,10.809a7.605,7.605,0,0,0,4.1,5.183l1.775,2.165a12.743,12.743,0,0,0,.932-10.649,12.114,12.114,0,0,0-1.42-2.733C39.57,75.449,38.355,76.594,38.355,76.594Z" transform="translate(-3.089 -17.593)" fill="#f2f2f2"/>
    <path id="Trazado_79" data-name="Trazado 79" d="M30.873,77.4l-.639-3.834A12.726,12.726,0,0,0,24.2,72.79c3.088,1.961,3.266,6.443,5.546,9.3a7.587,7.587,0,0,0,5.963,2.822l2.511,1.163a12.77,12.77,0,0,0-3.9-9.939,12.619,12.619,0,0,0-2.5-1.775A29.185,29.185,0,0,1,30.873,77.4Z" transform="translate(-1.935 -17.96)" fill="#f2f2f2"/>
    <path id="Trazado_80" data-name="Trazado 80" d="M83.339,76.6A3.685,3.685,0,0,1,83.8,76l.231-.213a3.612,3.612,0,0,1,5.955,2.059c.532-1.961-.887-3.887-2.236-5.325s-3-3.15-3-5.183a3.914,3.914,0,0,1,1.393-2.884l.08-.071a5.324,5.324,0,0,1,3.63-1.269,8.606,8.606,0,0,1,6.114,3.763c2.4,3.159,3.461,7.6,1.775,11.2-1.482,3.168-4.641,5.049-7.863,6.558l-1.349.621h-.071l-.275.124h0l.133.089-.142-.08h0a14,14,0,0,1-4.286-3.443A4.961,4.961,0,0,1,83.339,76.6Z" transform="translate(-8.53 -16.88)" fill="#f1f1f1"/>
    <path id="Trazado_81" data-name="Trazado 81" d="M94.039,73.179a8.821,8.821,0,0,1,.692,2.5A7.8,7.8,0,0,1,94.642,78a9.939,9.939,0,0,1-2,4.277,14.2,14.2,0,0,1-2.591,2.52l-1.349.621h-.071l-.275.124h0l.133.089-.142-.08h0A7.987,7.987,0,0,0,86.913,78.4a8.1,8.1,0,0,0-2.973-2.263l.231-.213a8.547,8.547,0,0,1,1.269.728,8.164,8.164,0,0,1,3.079,4.082,8.342,8.342,0,0,1,.177,4.641l.24-.151a14.731,14.731,0,0,0,3.86-3.665,9.265,9.265,0,0,0,1.633-4.189,8.3,8.3,0,0,0-.95-4.739A19.151,19.151,0,0,0,90.436,68.3a21.69,21.69,0,0,0-4.082-3.505.16.16,0,0,1,0-.213.144.144,0,0,1,.177-.071l.55.382a22.274,22.274,0,0,1,4.011,3.78A18.183,18.183,0,0,1,94.039,73.179Z" transform="translate(-8.66 -17.036)" fill="#fff"/>
    <ellipse id="Elipse_16" data-name="Elipse 16" cx="1.278" cy="1.473" rx="1.278" ry="1.473" transform="matrix(0.554, -0.833, 0.833, 0.554, 1.247, 61.007)" fill="#f2f2f2"/>
    <path id="Trazado_82" data-name="Trazado 82" d="M77.157,28.041h-.382V17.561a6.061,6.061,0,0,0-6.07-6.061H48.52a6.061,6.061,0,0,0-6.07,6.061V75.048a6.061,6.061,0,0,0,6.07,6.061H70.705a6.061,6.061,0,0,0,6.07-6.061V35.5h.382Z" transform="translate(-3.989 -11.069)" fill="#3f3d56"/>
    <path id="Trazado_83" data-name="Trazado 83" d="M71.171,13.27h-2.9a2.148,2.148,0,0,1-1.154,2.8,2.112,2.112,0,0,1-.808.16H53.565a2.148,2.148,0,0,1-2-2.964H48.906A4.526,4.526,0,0,0,44.38,17.8h0V75.2a4.526,4.526,0,0,0,4.526,4.526H71.171A4.526,4.526,0,0,0,75.7,75.2h0V17.8a4.526,4.526,0,0,0-4.526-4.535Z" transform="translate(-4.207 -11.268)" fill="#fff"/>
    <path id="Trazado_84" data-name="Trazado 84" d="M110.436,89.967H-.6c-.16,0-.293-.053-.293-.124s.133-.133.293-.133H110.436c.16,0,.293.062.293.133S110.6,89.967,110.436,89.967Z" transform="translate(0.89 -19.874)" fill="#3f3d56"/>
    <ellipse id="baf12095-0797-4180-a98d-6422936d747a" cx="10.844" cy="10.844" rx="10.844" ry="10.844" transform="translate(44.965 23.14)" fill="#2f8dcc"/>
    <path id="b582f34e-fd02-4670-b1d8-d23f069ed737-148" d="M60.342,52.951a1.136,1.136,0,0,1-.674-.222h0L57.12,50.776A1.136,1.136,0,0,1,58.5,49h0l1.651,1.269,3.931-5.147a1.136,1.136,0,0,1,1.588-.213h0a1.136,1.136,0,0,1,.186,1.588L61.265,52.48a1.136,1.136,0,0,1-.887.444Z" transform="translate(-5.606 -14.805)" fill="#fff"/>
    <path id="Trazado_85" data-name="Trazado 85" d="M86.678,86.672H84.9L84.06,79.83l2.618.009Z" transform="translate(-8.674 -18.762)" fill="#ffb6b6"/>
    <path id="Trazado_86" data-name="Trazado 86" d="M86.795,89.088H81.08v-.071A2.219,2.219,0,0,1,83.3,86.79h0L84.346,86l1.943.79h.506Z" transform="translate(-8.338 -19.457)" fill="#2f2e41"/>
    <path id="Trazado_87" data-name="Trazado 87" d="M118.419,79.659l-1.216,1.3-5.573-4.047L113.414,75Z" transform="translate(-11.778 -18.218)" fill="#ffb6b6"/>
    <path id="Trazado_88" data-name="Trazado 88" d="M120.409,81.007l-3.9,4.18h-.053a2.236,2.236,0,0,1-.115-3.15h0l.133-1.3,1.908-.887.346-.364Z" transform="translate(-12.242 -18.724)" fill="#2f2e41"/>
    <path id="Trazado_89" data-name="Trazado 89" d="M112.373,73.127,110.5,77.049,98.964,69.435,97.3,67.154,91.8,59.674l-2.227,3.55-1.553,3.7h0A4.056,4.056,0,0,0,86.194,69.9l-.071.657,1.012,8.856L83.4,80.554,81.26,68.663l.7-2.565.719-3.6L86.354,51.11h9.664l5.573,11.847L102,65.371l1.571,1.775Z" transform="translate(-8.359 -15.529)" fill="#2f2e41"/>
    <path id="Trazado_90" data-name="Trazado 90" d="M92.718,30.11l1.633,1.251,1.979.6s.808,11.465,1.544,12.193.071.754.222,1.713.506,2.9.506,2.9c-4.961,2.662-9.229,2.662-12.663-.373a.887.887,0,0,1,.47-.967c.639-.337-.595-1.917-.071-2.183s-.213-2.556-.213-2.556l.488-4.792-.382-.79.887-4.686,1.615-.586.639-1.553Z" transform="translate(-8.883 -13.164)" fill="#2f8dcc"/>
    <path id="Trazado_91" data-name="Trazado 91" d="M94.74,52.321a1.4,1.4,0,0,1,1.367-1.464h.248l2.3-4.437,1.287,2.29-2.387,3.9a1.42,1.42,0,0,1-2.813-.248Z" transform="translate(-9.876 -15.001)" fill="#ffb6b6"/>
    <path id="Trazado_92" data-name="Trazado 92" d="M98.78,49.631l4.934-7.658h0c0-.044-1.145-2.458-2.227-4.668l-.488-1-.213-.408c-.453-.887-.887-1.642-1.083-1.988a4.242,4.242,0,0,0-2.219-1.686h0a2.121,2.121,0,0,0-1.269,2.334,15.024,15.024,0,0,0,2.8,6.3l.8,1.056-2.786,6.052Z" transform="translate(-10.039 -13.402)" fill="#2f8dcc"/>
    <path id="Trazado_93" data-name="Trazado 93" d="M79.668,18.679a1.42,1.42,0,0,1-.169,1.988,1.1,1.1,0,0,1-.2.151l1.029,4.925-2.432-.95-.6-4.535a1.428,1.428,0,1,1,2.378-1.58Z" transform="translate(-7.885 -11.806)" fill="#ffb6b6"/>
    <path id="Trazado_94" data-name="Trazado 94" d="M77.34,22.47l.985,9.061h0s1.278.63,2.8,1.358c.257.115.222.648.5.781s.674-.231.887-.142c1.668.781,3.363,1.535,4.038,1.775a4.206,4.206,0,0,0,2.778-.089h0a2.121,2.121,0,0,0-.488-2.609A15.086,15.086,0,0,0,82.7,29.463L81.475,29.1l-1.651-6.452Z" transform="translate(-7.917 -12.304)" fill="#2f8dcc"/>
    <ellipse id="Elipse_17" data-name="Elipse 17" cx="3.23" cy="3.23" rx="3.23" ry="3.23" transform="translate(78.865 9.971)" fill="#ffb6b6"/>
    <path id="Trazado_95" data-name="Trazado 95" d="M87.95,23.274c.266-.772,1.588-1.313,3.736-1.384s2.662,2.458,2.662,2.458c1.438,1.163-1.526,4.268-1.668,4.153l.062-.577c.106-.976.559-1.775,0-2.733h-.55l-2.148.417.843-.745h0a3.328,3.328,0,0,1-1.163.346,1.225,1.225,0,0,1-1.171-.559.887.887,0,0,1-.107-.355,1.881,1.881,0,0,0-.887,1A11.54,11.54,0,0,1,87.95,23.274Z" transform="translate(-9.068 -12.239)" fill="#2f2e41"/>
    <path id="Trazado_96" data-name="Trazado 96" d="M27.232,18.5l-.142-.16.044-.044Z" transform="translate(-2.26 -11.835)" fill="#2f2e41"/>
    <path id="Trazado_97" data-name="Trazado 97" d="M26.8,31.444a4.011,4.011,0,0,1-2.662,1.713,6.611,6.611,0,0,1-3.55-.062l-.444-.169a4.438,4.438,0,0,0,.169-.559,3.914,3.914,0,0,0,.08-.79,2.858,2.858,0,0,1-.453.621,2.414,2.414,0,0,1-.47.373,4.6,4.6,0,0,1-1.384-1.3.4.4,0,0,1,.071-.169,6.672,6.672,0,0,0,.257-.887,6.212,6.212,0,0,0,.133-1.278,4.2,4.2,0,0,1-.728,1c-.089.089-.177.177-.284.266a3.727,3.727,0,0,1,.222-2.831,8.244,8.244,0,0,1,2.831-2.511,4.376,4.376,0,0,0,2.192-2.991A23.528,23.528,0,0,1,22.6,19.3a1.988,1.988,0,0,1,2.316-1.588,1.917,1.917,0,0,1,1.056.559,8.235,8.235,0,0,0-1.429,2.733,2.92,2.92,0,0,0,.763,2.9,4.49,4.49,0,0,1,.834.692,2.662,2.662,0,0,1,.346,1.349c.089.887.4,1.775.559,2.742A4.153,4.153,0,0,1,26.8,31.444Z" transform="translate(-1.164 -11.765)" fill="#2f2e41"/>
    <path id="Trazado_98" data-name="Trazado 98" d="M15.75,75.454l1.4,1.092L22,71.647l-2.068-1.6Z" transform="translate(-0.983 -17.661)" fill="#a0616a"/>
    <path id="Trazado_99" data-name="Trazado 99" d="M15.446,75l2.325,1.58-.737.905.985,3.088a.754.754,0,0,1-.488.941.728.728,0,0,1-.683-.115l-2.662-2.041.275-1.3-.887.808L12.58,78.1Z" transform="translate(-0.627 -18.218)" fill="#2f2e41"/>
    <path id="Trazado_100" data-name="Trazado 100" d="M23.77,21.154a3.346,3.346,0,1,0,5.8-2.325h0l-.08-.089h0l-.2-.106a3.763,3.763,0,0,0-2.263-1.074A3.55,3.55,0,0,0,23.77,21.154Z" transform="translate(-1.886 -11.751)" fill="#2f2e41"/>
    <path id="Trazado_101" data-name="Trazado 101" d="M43.876,19.526a1.234,1.234,0,0,1-1.136,1.331h-.213l-8.288,7.49L32.81,26.093l8.6-6.647a1.234,1.234,0,0,1,2.449.08Z" transform="translate(-2.904 -11.845)" fill="#a0616a"/>
    <path id="Trazado_102" data-name="Trazado 102" d="M30.29,31.177s.311.568,1.367-.311c.843-.71,4.881-3.763,5.75-5.014a.958.958,0,0,0,1.136-.337L36.156,23.43c-.71.08-.692.559-.621.834l-1.775.816-4.65,2.973.976,2.715Z" transform="translate(-2.488 -12.412)" fill="#2f8dcc"/>
    <path id="Trazado_103" data-name="Trazado 103" d="M25.328,37.881l-.177.834L25,41.768l6.5.355-.2-4.694-.63-1.038Z" transform="translate(-2.025 -13.871)" fill="#a0616a"/>
    <ellipse id="Elipse_18" data-name="Elipse 18" cx="2.804" cy="2.804" rx="2.804" ry="2.804" transform="translate(23.25 7.37)" fill="#a0616a"/>
    <path id="Trazado_104" data-name="Trazado 104" d="M22.85,33.31V30.976a3.709,3.709,0,0,1,2.884-3.621h0l.55-.745,2.263.222.408.887,1.633.967.63,2.023a2.414,2.414,0,0,1,1.029,1.571,4.375,4.375,0,0,1-.887,2.884l-.293,1.651-6.31,1.118h-.089Z" transform="translate(-1.783 -12.77)" fill="#2f8dcc"/>
    <path id="Trazado_105" data-name="Trazado 105" d="M31.531,21.538a11.233,11.233,0,0,1-1.012.559,5.52,5.52,0,0,1-1.065.4,4.651,4.651,0,0,0-.4-.674,2.662,2.662,0,0,1,0,.754,3.9,3.9,0,0,1-1.89-.151l-.532-.887v.994l-1.313.231h-.08a3.692,3.692,0,0,1,.967-3.39,3.088,3.088,0,0,1,3.248-.63l.213.089h0s.071.071.115.062C31.619,18.69,31.681,20.181,31.531,21.538Z" transform="translate(-2.042 -11.861)" fill="#2f2e41"/>
    <path id="Trazado_106" data-name="Trazado 106" d="M27.08,71.373l1.4,1.083,4.845-4.907L31.251,65.96Z" transform="translate(-2.259 -17.2)" fill="#a0616a"/>
    <path id="Trazado_107" data-name="Trazado 107" d="M26.926,71l2.325,1.58-.737.95.994,3.062a.763.763,0,0,1-.488.95.772.772,0,0,1-.692-.124l-2.662-2.032.275-1.3-.887.808-.994-.763Z" transform="translate(-1.919 -17.768)" fill="#2f2e41"/>
    <path id="Trazado_108" data-name="Trazado 108" d="M21.53,62.583h0l.666-1.154-.683-1.491V56.1l.115-.568a4.943,4.943,0,0,0-.133-2.334h0V50.843c0-.586.887-1.1.674-1.588-2.006-4.615,2.041-8.129,2.068-8.155l.08-.089.444.337h.373l5.759,1.047v.08a9.043,9.043,0,0,1,.692,2.547c.284.337,3.55,4.109,3.843,4.375a14.43,14.43,0,0,1,3.55,6.31,2.52,2.52,0,0,1-.426,2.325l-7.428,8.129-1.908-1.837,4.011-7.348-.284-.737a2.29,2.29,0,0,1-1.331-.772l-.816-.967a1.775,1.775,0,0,1-.408-.941l-.5-.062-1.775-1.855L26.908,62.769l-.337.887-5.8,6.833L18.3,68.928Z" transform="translate(-1.271 -14.391)" fill="#2f2e41"/>
    <path id="Trazado_109" data-name="Trazado 109" d="M20.754,11.516a1.234,1.234,0,0,0,.2,1.722,1.136,1.136,0,0,0,.186.124L19.29,18.829l1.517,5.786,2.423-1.092-1.535-4.375,1.154-6.372A1.234,1.234,0,0,0,20.754,11.5Z" transform="translate(-1.382 -11.014)" fill="#a0616a"/>
    <path id="Trazado_110" data-name="Trazado 110" d="M22.91,30.372s-.568.311-.967-1c-.319-1.056-2.485-6.735-2.52-8.3a.967.967,0,0,1-.772-.887l3.141-.435c.559.461.275.887.071,1.038l1.065,1.846,2.245,4.854-1.837,2.662Z" transform="translate(-1.31 -11.998)" fill="#2f8dcc"/>
    <path id="Trazado_111" data-name="Trazado 111" d="M25.25,22.787a5.7,5.7,0,0,1,4.393-3.816h0l-.115-.062h0l-.062-.142h-.106S25.809,18.208,25.25,22.787Z" transform="translate(-2.053 -11.885)" fill="#fd6584"/>
  </g>
</svg>
