<svg id="Mesa_de_trabajo_31" data-name="Mesa de trabajo 31" xmlns="http://www.w3.org/2000/svg" width="95.941" height="81.14" viewBox="0 0 95.941 81.14">
  <path id="Trazado_140" data-name="Trazado 140" d="M24.5,44.037C19.871,39.491,17.923,34.759,19,30.7c1.38-5.227,7.524-8.839,16.859-9.911v.3c-9.2,1.055-15.252,4.586-16.6,9.683-1.055,3.961.869,8.612,5.414,13.084Z" transform="translate(-3.264 -4.35)" fill="#f0f0f0"/>
  <path id="Trazado_141" data-name="Trazado 141" d="M71.831,66.628A72.111,72.111,0,0,1,53.56,64.12a68.929,68.929,0,0,1-20.43-8.929l.17-.252A68.7,68.7,0,0,0,53.593,63.8a70.771,70.771,0,0,0,20.2,2.435v.3A15.275,15.275,0,0,1,71.831,66.628Z" transform="translate(-5.979 -10.781)" fill="#f0f0f0"/>
  <path id="Trazado_142" data-name="Trazado 142" d="M91.934,58.8l-.106-.284c5.162-1.745,8.385-4.554,9.334-8.117,1.2-4.545-1.412-9.821-7.362-14.846S79.215,26.33,69.54,23.732l.081-.292C79.361,26.013,88,30.226,93.972,35.307s8.726,10.5,7.492,15.154C100.49,54.138,97.194,57.019,91.934,58.8Z" transform="translate(-12.836 -4.849)" fill="#f0f0f0"/>
  <path id="Trazado_143" data-name="Trazado 143" d="M33.02,65.2C21.681,60.165,12.947,53.639,8.41,46.82l.252-.17c4.5,6.778,13.214,13.271,24.48,18.271Z" transform="translate(-1.324 -9.22)" fill="#f0f0f0"/>
  <path id="Trazado_144" data-name="Trazado 144" d="M87.031,79.418c-1.177,0-2.362,0-3.571-.073v-.3c9.034.39,17-.69,23.036-3.125l.114.276C101.35,78.323,94.629,79.418,87.031,79.418Z" transform="translate(-15.457 -14.732)" fill="#f0f0f0"/>
  <path id="Trazado_145" data-name="Trazado 145" d="M71.1,19.838c-1.875-.609-3.807-1.177-5.73-1.688-11.112-2.938-22-3.977-31.542-3.019v-.292c9.578-.974,20.519.073,31.656,3.019,1.94.511,3.872,1.08,5.747,1.7Z" transform="translate(-6.111 -3.162)" fill="#f0f0f0"/>
  <path id="Trazado_146" data-name="Trazado 146" d="M15.767,44.6c-4.627-4.554-6.575-9.3-5.5-13.368C11.619,25.992,17.8,22.38,27.122,21.3v.3c-9.164,1.08-15.211,4.594-16.567,9.692-1.047,3.961.877,8.612,5.422,13.084Z" transform="translate(-1.619 -4.446)" fill="#f0f0f0"/>
  <path id="Trazado_147" data-name="Trazado 147" d="M63.1,67.188A72.427,72.427,0,0,1,44.83,64.68,68.636,68.636,0,0,1,24.4,55.752l.17-.252a68.49,68.49,0,0,0,20.292,8.864,70.755,70.755,0,0,0,20.2,2.435v.3A15.342,15.342,0,0,1,63.1,67.188Z" transform="translate(-4.335 -10.886)" fill="#f0f0f0"/>
  <path id="Trazado_148" data-name="Trazado 148" d="M83.2,59.357l-.1-.284c5.162-1.745,8.393-4.554,9.342-8.117,1.2-4.554-1.445-9.83-7.362-14.862s-14.61-9.245-24.269-11.81L60.883,24c9.74,2.573,18.385,6.794,24.391,11.875s8.693,10.5,7.459,15.154C91.76,54.7,88.464,57.579,83.2,59.357Z" transform="translate(-11.192 -4.954)" fill="#f0f0f0"/>
  <path id="Trazado_149" data-name="Trazado 149" d="M24.29,65.757C12.927,60.725,4.209,54.2-.32,47.38l.26-.17c4.5,6.778,13.19,13.263,24.48,18.271Z" transform="translate(0.32 -9.325)" fill="#f0f0f0"/>
  <path id="Trazado_150" data-name="Trazado 150" d="M78.293,79.976c-1.169,0-2.354,0-3.563-.081v-.3c9.026.39,17-.69,23.036-3.125l.114.284C92.62,78.881,85.9,79.976,78.293,79.976Z" transform="translate(-13.813 -14.835)" fill="#f0f0f0"/>
  <path id="Trazado_151" data-name="Trazado 151" d="M62.353,20.4c-1.875-.609-3.807-1.177-5.731-1.688-11.1-2.938-22-3.985-31.542-3.019v-.3c9.578-.966,20.519.081,31.656,3.028,1.932.511,3.872,1.08,5.747,1.688Z" transform="translate(-4.463 -3.267)" fill="#f0f0f0"/>
  <path id="Trazado_152" data-name="Trazado 152" d="M9.037,40.037a1.916,1.916,0,0,1-.057-2.484.07.07,0,1,1,.114.081,1.786,1.786,0,0,0,.065,2.321C9.216,40.021,9.1,40.11,9.037,40.037Z" transform="translate(-1.351 -7.501)" fill="#fff"/>
  <path id="Trazado_153" data-name="Trazado 153" d="M18.694,47.673a1.088,1.088,0,0,0,.373.966c.073.057,0,.162-.106.1a1.218,1.218,0,0,1-.414-1.063.076.076,0,0,1,.073-.073.073.073,0,0,1,.073.073Z" transform="translate(-3.232 -9.398)" fill="#fff"/>
  <ellipse id="Elipse_26" data-name="Elipse 26" cx="1.209" cy="1.209" rx="1.209" ry="1.209" transform="translate(65.105 59.841)" fill="#fd6584"/>
  <ellipse id="Elipse_27" data-name="Elipse 27" cx="0.909" cy="0.909" rx="0.909" ry="0.909" transform="translate(23.198 6.871)" fill="#fd6584"/>
  <ellipse id="Elipse_28" data-name="Elipse 28" cx="1.209" cy="1.209" rx="1.209" ry="1.209" transform="translate(69.375 39.297)" fill="#e6e6e6"/>
  <ellipse id="Elipse_29" data-name="Elipse 29" cx="1.964" cy="1.964" rx="1.964" ry="1.964" transform="translate(7.695 43.356)" fill="#e6e6e6"/>
  <ellipse id="Elipse_30" data-name="Elipse 30" cx="1.209" cy="1.209" rx="1.209" ry="1.209" transform="translate(46.924 5.832)" fill="#e6e6e6"/>
  <path id="Trazado_154" data-name="Trazado 154" d="M38,56.979h0a.43.43,0,0,0,.122-.089Z" transform="translate(-6.896 -11.148)" fill="#fff"/>
  <path id="Trazado_155" data-name="Trazado 155" d="M78.773,29.261a8.985,8.985,0,1,1-17.954,0A9.115,9.115,0,0,1,69.812,20h0a9.1,9.1,0,0,1,8.929,9.237Z" transform="translate(-11.192 -4.201)" fill="#f2f2f2"/>
  <path id="Trazado_156" data-name="Trazado 156" d="M98.8,35.457l1.266-2.492c-1.136-1.412-4.87-3.125-4.87-3.125l-5.032-4.724a1.193,1.193,0,0,0-1.461-.885,1.242,1.242,0,0,0-.86,1.518,1.193,1.193,0,0,0,.852.877l5.43,6.729Z" transform="translate(-16.274 -4.991)" fill="#9e616a"/>
  <path id="Trazado_157" data-name="Trazado 157" d="M100.6,36.918l1.778.584a5.9,5.9,0,0,0,3.969-.089h0a2.281,2.281,0,0,0,1.429-1.907h0a2.256,2.256,0,0,0-1.834-2.435c-1.672-.284-3.823-.43-4.594.519h0Z" transform="translate(-18.685 -6.622)" fill="#3f3d56"/>
  <ellipse id="Elipse_31" data-name="Elipse 31" cx="8.977" cy="9.269" rx="8.977" ry="9.269" transform="translate(60.113 19.37)" fill="#fff"/>
  <path id="Trazado_158" data-name="Trazado 158" d="M80.071,30.823a8.8,8.8,0,0,1-.6,1.989c-1.623,3.458,2.922,2.33,4.537,2.33,1.761,0,3.45.958,3.19-3.3a3.32,3.32,0,0,0-3.19-3.3C82.5,28.55,80.387,29.24,80.071,30.823Z" transform="translate(-14.641 -5.811)" fill="#2f2e41"/>
  <ellipse id="Elipse_32" data-name="Elipse 32" cx="2.589" cy="2.679" rx="2.589" ry="2.679" transform="translate(66.51 23.973)" fill="#ffb6b6"/>
  <path id="Trazado_159" data-name="Trazado 159" d="M82.3,29.9a2.914,2.914,0,0,1,4.058,1.023,3.182,3.182,0,0,1,.438,1.623,6.737,6.737,0,0,1-4.123.081l-.333-.812-.195.812a1.185,1.185,0,0,1-1.291,0A3.182,3.182,0,0,1,82.3,29.9Z" transform="translate(-14.967 -5.983)" fill="#2f2e41"/>
  <path id="Trazado_160" data-name="Trazado 160" d="M90.487,42.518a8.766,8.766,0,0,1-12.557.933l.771-2.216a2.281,2.281,0,0,1,1.956-1.388h.5l1.169-1.039s3.149-.122,3.1-.179l1.907,1.185h0l.755.049a2.33,2.33,0,0,1,1.964,1.4Z" transform="translate(-14.416 -7.709)" fill="#2f8dcc"/>
  <path id="Trazado_161" data-name="Trazado 161" d="M82.685,89.493l-.219-3.2a9.74,9.74,0,0,0-4.716-1.1c2.3,1.834,2.118,5.5,3.709,8.011a6,6,0,0,0,4.5,2.752L87.872,97.1a10.722,10.722,0,0,0-2.354-8.4,10.008,10.008,0,0,0-1.843-1.672A26.393,26.393,0,0,1,82.685,89.493Z" transform="translate(-14.382 -16.478)" fill="#f2f2f2"/>
  <path id="Trazado_162" data-name="Trazado 162" d="M11.055,19.5l-.227-3.247A9.813,9.813,0,0,0,6.12,15.169c2.338,1.875,2.11,5.544,3.7,8.052a6.023,6.023,0,0,0,4.5,2.752l1.907,1.136a10.666,10.666,0,0,0-2.354-8.4,10.008,10.008,0,0,0-1.843-1.672C11.623,18.278,11.055,19.5,11.055,19.5Z" transform="translate(-0.893 -3.291)" fill="#f2f2f2"/>
  <path id="Trazado_163" data-name="Trazado 163" d="M93.63,97.152H92.136L91.43,91.21h2.2Z" transform="translate(-16.958 -17.611)" fill="#9e616a"/>
  <path id="Trazado_164" data-name="Trazado 164" d="M93.493,99.747H88.68v-.065a1.907,1.907,0,0,1,1.883-1.932h0l.877-.69,1.623.69h.422Z" transform="translate(-16.44 -18.712)" fill="#2f2e41"/>
  <path id="Trazado_165" data-name="Trazado 165" d="M109.828,97.152h-1.494l-.714-5.942h2.208Z" transform="translate(-20.007 -17.611)" fill="#9e616a"/>
  <path id="Trazado_166" data-name="Trazado 166" d="M109.685,99.747H104.88v-.065a1.907,1.907,0,0,1,1.875-1.932h0l.877-.69,1.623.69h.414Z" transform="translate(-19.491 -18.712)" fill="#2f2e41"/>
  <path id="Trazado_167" data-name="Trazado 167" d="M104.184,59.269l1.258,12.313s1.623,12.33,1.356,14.026.073,1.948.073,1.948l-2.857-.211a2.435,2.435,0,0,0-.39-1.542c-.471-.487-.235-1.94-.235-1.94L97.837,63.806,94.46,74.358s-.552,11.583-.625,11.745-.317,2.354-.317,2.354h-2.9s.39-1.3-.162-1.7-1.015-.081-.544-.812a2.719,2.719,0,0,0,.471-2.021,10.45,10.45,0,0,1-.162-2.029s.235-21.867,1.575-22.6S104.184,59.269,104.184,59.269Z" transform="translate(-16.636 -11.538)" fill="#2f2e41"/>
  <ellipse id="Elipse_33" data-name="Elipse 33" cx="3.084" cy="3.19" rx="3.084" ry="3.19" transform="translate(78.522 16.432)" fill="#9e616a"/>
  <path id="Trazado_168" data-name="Trazado 168" d="M105.626,55.132c-5.974,1.274-13.9-.917-13.9-.917l2.118-9.464-.755-9.911a2.719,2.719,0,0,1,1.623-2.752l1.429-.5,1.185-1.753,3.385.114,1.355,1.843,1.063.584,2.313,1.266h0l-.731,7.305-.438,4.383s1.331,4.943,1.063,5.593,0,.341,0,.69.268.373.3,1.063S105.626,55.132,105.626,55.132Z" transform="translate(-17.014 -6.054)" fill="#3f3d56"/>
  <path id="Trazado_169" data-name="Trazado 169" d="M107.016,100.451H60.856a.106.106,0,1,1,0-.211h46.161a.106.106,0,1,1,0,.211Z" transform="translate(-11.18 -19.311)" fill="#ccc"/>
  <path id="Trazado_170" data-name="Trazado 170" d="M98.988,26.526a9.74,9.74,0,0,0,1.623-.162,4.87,4.87,0,0,0,2.013-1.623h0a4.87,4.87,0,0,0,.446-1.5,4.48,4.48,0,0,0-.812-3.458,1.323,1.323,0,0,0-.552-.463h-.057a1.566,1.566,0,0,1-.812-.5l-.146-.138a1.948,1.948,0,0,0-.86-.422,3.5,3.5,0,0,0-2.167.471,2.2,2.2,0,0,1-1.38.081.122.122,0,0,0-.122.049.917.917,0,0,1-.617.268c-.138,0-.284.219-.455.487l-.122.179v-.081L94.9,19.8a1.177,1.177,0,0,0,.114,1.623,1.315,1.315,0,0,0,.43.235,2.029,2.029,0,0,0,.438.057h.276a1.672,1.672,0,0,1,1.209,1.12.438.438,0,0,0,.568.26l.106-.057a.7.7,0,0,1,.649-.146.5.5,0,0,1,.219.244.617.617,0,0,0,.252.284c.357.179.406,1.023.292,1.737s-.341,1.177-.568,1.209-.195.041-.2.073h0A.812.812,0,0,0,98.988,26.526Z" transform="translate(-17.56 -3.868)" fill="#2f2e41"/>
  <path id="Trazado_171" data-name="Trazado 171" d="M82.6,43.034a9.391,9.391,0,0,1,0-18.774A9.237,9.237,0,0,1,91.7,33.643h0A9.261,9.261,0,0,1,82.6,43.034Zm0-18.547a9.164,9.164,0,1,0,8.864,9.156h0A9.026,9.026,0,0,0,82.6,24.487Z" transform="translate(-13.514 -5.003)" fill="#3f3d56"/>
  <ellipse id="Elipse_34" data-name="Elipse 34" cx="8.977" cy="9.269" rx="8.977" ry="9.269" transform="translate(28.734 0.093)" fill="#fff"/>
  <ellipse id="Elipse_35" data-name="Elipse 35" cx="2.93" cy="3.028" rx="2.93" ry="3.028" transform="translate(35.203 4.257)" fill="#ffb8b8"/>
  <path id="f183d98d-beca-4def-af6d-fbe16b93cf6a-764" d="M48.441,6.525s.763-1.51-.909-1.623a2.313,2.313,0,0,0-2.89-.244,1.469,1.469,0,0,0-1.234.933A.528.528,0,0,0,42.654,6a4.367,4.367,0,0,0,0,2.6,5.073,5.073,0,0,0,.609,1.372s-.325-1.526,1.5-1.623,3.515-1.323,3.661.187.325.812.325.812S50.2,7.134,48.441,6.525Z" transform="translate(-7.735 -1.237)" fill="#2f2e41"/>
  <path id="Trazado_172" data-name="Trazado 172" d="M51.549,18.76A8.774,8.774,0,0,1,39,19.7l.771-2.224a2.3,2.3,0,0,1,1.964-1.388h.487l1.169-1.039s3.149-.114,3.1-.17L48.4,16.065h0l.755.049A2.305,2.305,0,0,1,51.118,17.5Z" transform="translate(-7.085 -3.237)" fill="#2f8dcc"/>
  <path id="Trazado_173" data-name="Trazado 173" d="M44.041,19.281A9.237,9.237,0,0,1,35,9.9a9.091,9.091,0,1,1,18.174,0h0a9.237,9.237,0,0,1-9.131,9.383Zm0-18.539A9.01,9.01,0,0,0,35.178,9.9a8.872,8.872,0,1,0,17.735,0h0A9.026,9.026,0,0,0,44.041.742Z" transform="translate(-6.33 -0.535)" fill="#3f3d56"/>
  <ellipse id="Elipse_36" data-name="Elipse 36" cx="8.977" cy="9.269" rx="8.977" ry="9.269" transform="translate(7.784 14.728)" fill="#fff"/>
  <path id="Trazado_174" data-name="Trazado 174" d="M15.158,25.722a4.131,4.131,0,0,1,2.386-2.743,4.058,4.058,0,0,1,3.75,1.12c1.623,1.623,2,7.305.9,9.123h-1.2l-.317-1.12v1.071H19.606A4.732,4.732,0,0,1,15,28.458a11.672,11.672,0,0,1,.162-2.735Z" transform="translate(-2.56 -4.745)" fill="#2f2e41"/>
  <ellipse id="Elipse_37" data-name="Elipse 37" cx="2.557" cy="2.646" rx="2.557" ry="2.646" transform="translate(14.067 19.744)" fill="#9e616a"/>
  <path id="Trazado_175" data-name="Trazado 175" d="M17.44,24.906l2.946-1.526h0a3.831,3.831,0,0,1,2.175,3.166l.073.909L21.4,27.13l-.138-1.161-.211,1.071-.568-.146v-1.8l-.576,1.8-2.029-.487Z" transform="translate(-3.024 -4.837)" fill="#2f2e41"/>
  <path id="Trazado_176" data-name="Trazado 176" d="M25.625,36.743a8.782,8.782,0,0,1-12.565.933l.763-2.216a2.33,2.33,0,0,1,1.964-1.4h.487l1.177-1.1s3.149-.114,3.1-.17l1.907,1.185h0l.747.049a2.33,2.33,0,0,1,1.981,1.42Z" transform="translate(-2.2 -6.609)" fill="#2f8dcc"/>
  <path id="Trazado_177" data-name="Trazado 177" d="M18.221,37.312A9.245,9.245,0,0,1,9.13,27.921a9.245,9.245,0,0,1,9.091-9.391,9.245,9.245,0,0,1,9.091,9.391h0a9.261,9.261,0,0,1-9.091,9.391Zm0-18.547a9.01,9.01,0,0,0-8.864,9.156,9.01,9.01,0,0,0,8.864,9.156,9.01,9.01,0,0,0,8.864-9.156h0a9.026,9.026,0,0,0-8.864-9.156Z" transform="translate(-1.459 -3.924)" fill="#3f3d56"/>
  <path id="Trazado_178" data-name="Trazado 178" d="M91.609,41.185,90.245,38.75c-1.745.2-5.13,2.557-5.13,2.557l-6.558,1.851a1.193,1.193,0,0,0-1.51.812,1.25,1.25,0,0,0,.812,1.558,1.169,1.169,0,0,0,1.177-.268l8.409-1.128Z" transform="translate(-14.239 -7.732)" fill="#9e616a"/>
  <path id="Trazado_179" data-name="Trazado 179" d="M93.88,40.552l3.044-2.63L97.37,35.8a2.329,2.329,0,0,0-.812-2.265h0a2.151,2.151,0,0,0-3,.284c-1.128,1.3-2.394,3.109-2.037,4.286h0Z" transform="translate(-16.964 -6.66)" fill="#3f3d56"/>
  <path id="Trazado_180" data-name="Trazado 180" d="M34.075,51.312H22.623a1.177,1.177,0,0,1-1.153-1.193V42.813a1.177,1.177,0,0,1,1.153-1.193H34.075a1.169,1.169,0,0,1,1.153,1.193v7.305a1.169,1.169,0,0,1-1.153,1.193Z" transform="translate(-3.783 -8.272)" fill="#e6e6e6"/>
  <path id="Trazado_181" data-name="Trazado 181" d="M29.717,50.6H23.629a1.1,1.1,0,0,1-1.08-1.144V43.93a1.1,1.1,0,0,1,1.08-1.12h9.838a1.1,1.1,0,0,1,1.08,1.12v1.688a4.87,4.87,0,0,1-4.83,4.984Z" transform="translate(-3.987 -8.496)" fill="#fff"/>
  <path id="Trazado_182" data-name="Trazado 182" d="M32.893,46.436H25.028a.268.268,0,0,1,0-.536h7.865a.268.268,0,1,1,0,.536Z" transform="translate(-4.403 -9.078)" fill="#2f8dcc"/>
  <path id="Trazado_183" data-name="Trazado 183" d="M26.262,47.726H25.028a.268.268,0,0,1,0-.536h1.234a.268.268,0,1,1,0,.536Z" transform="translate(-4.403 -9.321)" fill="#2f8dcc"/>
  <path id="Trazado_184" data-name="Trazado 184" d="M28.437,49.016H25.028a.268.268,0,0,1,0-.536h3.409a.268.268,0,0,1,.26.268.26.26,0,0,1-.26.268Z" transform="translate(-4.403 -9.564)" fill="#2f8dcc"/>
  <ellipse id="Elipse_38" data-name="Elipse 38" cx="2.419" cy="2.5" rx="2.419" ry="2.5" transform="translate(14.87 30.734)" fill="#3f3d56"/>
  <path id="Trazado_185" data-name="Trazado 185" d="M70.639,10.675H59.2A1.177,1.177,0,0,1,58.05,9.482V2.177A1.169,1.169,0,0,1,59.2,1H70.639a1.169,1.169,0,0,1,1.169,1.209V9.515a1.169,1.169,0,0,1-1.169,1.161Z" transform="translate(-10.672 -0.623)" fill="#e6e6e6"/>
  <path id="Trazado_186" data-name="Trazado 186" d="M66.337,9.954H60.25a1.1,1.1,0,0,1-1.08-1.112V3.29a1.1,1.1,0,0,1,1.08-1.12h9.8a1.1,1.1,0,0,1,1.08,1.12V4.978a4.87,4.87,0,0,1-4.789,4.976Z" transform="translate(-10.883 -0.843)" fill="#fff"/>
  <path id="Trazado_187" data-name="Trazado 187" d="M69.484,5.788H61.619a.268.268,0,0,1,0-.528h7.865a.264.264,0,0,1,0,.528Z" transform="translate(-11.302 -1.425)" fill="#2f8dcc"/>
  <path id="Trazado_188" data-name="Trazado 188" d="M62.852,7.078H61.619a.268.268,0,0,1,0-.528h1.234a.26.26,0,0,1,.252.268.252.252,0,0,1-.252.26Z" transform="translate(-11.302 -1.668)" fill="#2f8dcc"/>
  <path id="Trazado_189" data-name="Trazado 189" d="M65.021,8.368H61.612a.252.252,0,0,1-.252-.26.26.26,0,0,1,.252-.268h3.409a.264.264,0,0,1,0,.528Z" transform="translate(-11.295 -1.911)" fill="#2f8dcc"/>
  <ellipse id="Elipse_39" data-name="Elipse 39" cx="2.419" cy="2.5" rx="2.419" ry="2.5" transform="translate(44.562 6.457)" fill="#3f3d56"/>
</svg>
