<svg id="Mesa_de_trabajo_31_copia" data-name="Mesa de trabajo 31 copia" xmlns="http://www.w3.org/2000/svg" width="100.836" height="70.094" viewBox="0 0 100.836 70.094">
  <path id="a31475c4-f0df-4934-8dee-db246d5650fa-576" d="M6.365,84.087a3.009,3.009,0,0,0,2.927-.508,5.807,5.807,0,0,0,1.59-3.542l.762-3.837-1.64,1.107A11.649,11.649,0,0,0,6.89,80.053,3.96,3.96,0,0,0,6.382,84" transform="translate(-1.504 -20.084)" fill="#e6e6e6"/>
  <path id="bc80039d-7499-47e3-8dd4-b917794dfbc0-577" d="M6.666,89.708A19.569,19.569,0,0,1,6.4,85.281a6.911,6.911,0,0,1,1.344-3.656,6.083,6.083,0,0,1,1.6-1.41c.156-.1.3.148.139.246a5.739,5.739,0,0,0-2.279,2.755,9.165,9.165,0,0,0-.492,3.992c.049.82.156,1.64.271,2.459a.144.144,0,0,1-.279.074Z" transform="translate(-1.559 -20.804)" fill="#f2f2f2"/>
  <path id="a24c42db-7472-45f4-900c-466dbf3f7d22-578" d="M8.5,88.4a2.189,2.189,0,0,0,1.918.992,4.378,4.378,0,0,0,2.509-1.369l2.156-1.9-1.426-.066a8.5,8.5,0,0,0-3.058.221,2.9,2.9,0,0,0-2.058,2.09" transform="translate(-1.942 -21.852)" fill="#e6e6e6"/>
  <path id="a7d2fb0b-6149-49f2-88d6-cc03571334a8-579" d="M6,91.858c.967-1.713,2.091-3.624,4.1-4.23a4.526,4.526,0,0,1,1.722-.172c.18,0,.139.3-.041.279a4.214,4.214,0,0,0-2.755.73A7.149,7.149,0,0,0,7.13,90.505c-.312.475-.557.967-.836,1.492C6.2,92.129,5.941,92,6,91.858Z" transform="translate(-1.489 -22.109)" fill="#f2f2f2"/>
  <rect id="b85ae1dc-b170-4f54-a6de-4a72451950d7" width="80.079" height="37.998" transform="translate(10.666 2.189)" fill="#e6e6e6"/>
  <rect id="f015ec3e-20cc-40e8-8473-d753a9bdb685" width="75.496" height="31.702" transform="translate(12.961 5.452)" fill="#fff"/>
  <rect id="ed585d6d-4c60-4aae-9dcd-e3012a759289" width="80.079" height="3.402" transform="translate(10.633 0)" fill="#2f8dcc"/>
  <ellipse id="b43fe0fb-7393-4bbe-8dcd-48ed75608891" cx="0.631" cy="0.631" rx="0.631" ry="0.631" transform="translate(12.535 0.943)" fill="#fff"/>
  <ellipse id="ada3e127-c3a1-446f-8730-bf32ed0f9b11" cx="0.631" cy="0.631" rx="0.631" ry="0.631" transform="translate(14.92 0.943)" fill="#fff"/>
  <ellipse id="e3927273-efa9-4ef7-88ca-a022a07a6d22" cx="0.631" cy="0.631" rx="0.631" ry="0.631" transform="translate(17.314 0.943)" fill="#fff"/>
  <path id="Trazado_112" data-name="Trazado 112" d="M38.06,41.247H76.214V34.689a5.116,5.116,0,0,0-1.59-3.681h0c-.68-.68-2.959-2.459-5.312-2.271a4.288,4.288,0,0,0-3.173,1.787c-2.664,3.443-6.173,2.279-8.018,1.279a9.69,9.69,0,0,0-12.912,3.279c-.91,1.353-2.886,3.2-7.14,4.279Z" transform="translate(-7.268 -11.529)" fill="#e4e4e4"/>
  <path id="Trazado_113" data-name="Trazado 113" d="M78.357,39.914H38.121a.131.131,0,0,1-.131-.131V20.5a.127.127,0,1,1,.254,0V39.66H78.357a.127.127,0,1,1,0,.254Z" transform="translate(-7.256 -10.024)" fill="#3f3d56"/>
  <rect id="Rectángulo_18" data-name="Rectángulo 18" width="0.246" height="7.239" transform="translate(38.268 22.471)" fill="#3f3d56"/>
  <rect id="Rectángulo_19" data-name="Rectángulo 19" width="0.246" height="10.625" transform="translate(45.663 19.093)" fill="#3f3d56"/>
  <rect id="Rectángulo_20" data-name="Rectángulo 20" width="0.246" height="8.395" transform="translate(53.074 21.315)" fill="#3f3d56"/>
  <rect id="Rectángulo_21" data-name="Rectángulo 21" width="0.246" height="12.477" transform="translate(60.485 17.24)" fill="#3f3d56"/>
  <rect id="Rectángulo_22" data-name="Rectángulo 22" width="0.246" height="9.633" transform="translate(67.896 20.077)" fill="#3f3d56"/>
  <ellipse id="Elipse_19" data-name="Elipse 19" cx="0.754" cy="0.754" rx="0.754" ry="0.754" transform="translate(45.048 18.503)" fill="#2f8dcc"/>
  <ellipse id="Elipse_20" data-name="Elipse 20" cx="0.754" cy="0.754" rx="0.754" ry="0.754" transform="translate(59.87 16.527)" fill="#2f8dcc"/>
  <ellipse id="Elipse_21" data-name="Elipse 21" cx="0.754" cy="0.754" rx="0.754" ry="0.754" transform="translate(52.459 20.602)" fill="#2f8dcc"/>
  <ellipse id="Elipse_22" data-name="Elipse 22" cx="0.754" cy="0.754" rx="0.754" ry="0.754" transform="translate(37.637 21.717)" fill="#2f8dcc"/>
  <ellipse id="Elipse_23" data-name="Elipse 23" cx="0.754" cy="0.754" rx="0.754" ry="0.754" transform="translate(67.281 19.249)" fill="#2f8dcc"/>
  <path id="Trazado_114" data-name="Trazado 114" d="M21.13,90.145h1.508L23.36,84.3H21.13Z" transform="translate(-4.217 -21.544)" fill="#ffb6b6"/>
  <path id="Trazado_115" data-name="Trazado 115" d="M20.643,90.82h2.984a1.9,1.9,0,0,1,1.9,1.9v.066H20.61Z" transform="translate(-4.124 -22.719)" fill="#2f2e41"/>
  <path id="Trazado_116" data-name="Trazado 116" d="M29.86,90.145h1.517L32.1,84.3H29.86Z" transform="translate(-5.791 -21.544)" fill="#ffb6b6"/>
  <path id="Trazado_117" data-name="Trazado 117" d="M29.377,90.82h2.959a1.9,1.9,0,0,1,1.9,1.9v.066H29.32Z" transform="translate(-5.693 -22.719)" fill="#2f2e41"/>
  <path id="Trazado_118" data-name="Trazado 118" d="M32.11,55.822a1.328,1.328,0,0,0-.123-1.869,1.017,1.017,0,0,0-.189-.139L29.339,42,26.65,43.058l3.279,11.3a1.32,1.32,0,0,0,.566,1.8,1.336,1.336,0,0,0,1.64-.312Z" transform="translate(-5.212 -13.922)" fill="#ffb6b6"/>
  <path id="Trazado_119" data-name="Trazado 119" d="M18.826,55.911l-1.115,1.131a16.207,16.207,0,0,0,1.1,9.8l1.541,15.675,2.755.213.82-18.241,3.8,6.05-.664,12.125,3.05-.074,1.369-13.428L27.729,55.14Z" transform="translate(-3.545 -16.289)" fill="#2f2e41"/>
  <path id="Trazado_120" data-name="Trazado 120" d="M22.781,54.15a43.1,43.1,0,0,1-5.025-.328H17.69l1.64-7.313L18.764,37.1l5.411-.189a1.992,1.992,0,0,1,2.058,1.713l1.107,7.5,1.017,6.657h0C27.61,53.871,25.15,54.15,22.781,54.15Z" transform="translate(-3.598 -13.004)" fill="#2f8dcc"/>
  <path id="Trazado_121" data-name="Trazado 121" d="M25,38.44l1.1-1.377s1.927-1.32,2.533,1.508,1.746,7.378,1.746,7.378l-3.771.3Z" transform="translate(-4.915 -12.977)" fill="#2f8dcc"/>
  <path id="Trazado_122" data-name="Trazado 122" d="M12.247,55.958a1.32,1.32,0,0,1,.123-1.869.82.82,0,0,1,.189-.139l2.459-11.83,2.705,1.066-3.279,11.3a1.328,1.328,0,0,1-2.2,1.476Z" transform="translate(-2.557 -13.943)" fill="#ffb6b6"/>
  <path id="Trazado_123" data-name="Trazado 123" d="M19.428,38.63l-1.1-1.377S16.4,35.933,15.8,38.761s-1.746,7.378-1.746,7.378l3.763.3Z" transform="translate(-2.942 -13.011)" fill="#2f8dcc"/>
  <path id="Trazado_124" data-name="Trazado 124" d="M24.563,33.52H17.4a.557.557,0,0,1-.557-.549V29.88a4.14,4.14,0,0,1,8.28,0h0v3.091A.557.557,0,0,1,24.563,33.52Z" transform="translate(-3.444 -10.992)" fill="#2f2e41"/>
  <ellipse id="Elipse_24" data-name="Elipse 24" cx="3.033" cy="3.033" rx="3.033" ry="3.033" transform="translate(15.289 16.281)" fill="#ffb6b6"/>
  <path id="Trazado_125" data-name="Trazado 125" d="M26.555,30.435H22.177l-.049-.631-.221.631h-.672l-.09-1.246-.434,1.246H19.39v-.066a3.279,3.279,0,0,1,3.279-3.279h.623a3.279,3.279,0,0,1,3.279,3.279Z" transform="translate(-3.904 -11.235)" fill="#2f2e41"/>
  <path id="Trazado_126" data-name="Trazado 126" d="M22.014,34.648h-.1l-3.205-.566V28.77h3.517l-.09.107c-1.213,1.418-.3,3.714.353,4.96a.549.549,0,0,1-.041.582A.574.574,0,0,1,22.014,34.648Z" transform="translate(-3.781 -11.538)" fill="#2f2e41"/>
  <path id="Trazado_127" data-name="Trazado 127" d="M112.818,90.145H111.3L110.58,84.3h2.238Z" transform="translate(-20.336 -21.544)" fill="#9e616a"/>
  <path id="Trazado_128" data-name="Trazado 128" d="M112.7,92.788H107.78v-.066a1.9,1.9,0,0,1,1.9-1.9h2.984Z" transform="translate(-19.831 -22.719)" fill="#2f2e41"/>
  <path id="Trazado_129" data-name="Trazado 129" d="M106.188,90.145h-1.517L103.95,84.3h2.238Z" transform="translate(-19.141 -21.544)" fill="#9e616a"/>
  <path id="Trazado_130" data-name="Trazado 130" d="M106.069,92.788H101.15v-.066a1.9,1.9,0,0,1,1.9-1.9h2.984Z" transform="translate(-18.637 -22.719)" fill="#2f2e41"/>
  <path id="Trazado_131" data-name="Trazado 131" d="M85.111,41.009a1.394,1.394,0,0,0,1.959.312,1.231,1.231,0,0,0,.189-.164l3,1.172,1.156-1.64-4.255-1.64a1.418,1.418,0,0,0-2.05,1.927Z" transform="translate(-15.698 -13.332)" fill="#9e616a"/>
  <path id="Trazado_132" data-name="Trazado 132" d="M105.783,53.68l-3.943,1.287,1.32,27.939,3.042.074,1.558-19.7.352,19.626,3.771.2,1.385-29.431Z" transform="translate(-18.761 -16.026)" fill="#2f2e41"/>
  <path id="Trazado_133" data-name="Trazado 133" d="M103.129,33.115l10.125-2.205,1.123,8.723L113.45,43.8l.369,6.329s-8,3.984-11.969.738c0,0,3.189-8.37,1.344-12.3Z" transform="translate(-18.763 -11.923)" fill="#3f3d56"/>
  <path id="Trazado_134" data-name="Trazado 134" d="M102.56,34.829l-1.746-1.23s-.107-.148-1.566,1.558-4.427,4.427-4.427,4.427L89.9,37.731,89,41.06l5.739,2.705,8.124-5.427Z" transform="translate(-16.447 -12.407)" fill="#3f3d56"/>
  <path id="Trazado_135" data-name="Trazado 135" d="M116,56.955a1.4,1.4,0,0,0,.664-1.869,1.105,1.105,0,0,0-.123-.213l1.705-2.73-1.4-1.443-2.353,3.886A1.41,1.41,0,0,0,116,56.955Z" transform="translate(-20.941 -15.489)" fill="#9e616a"/>
  <path id="Trazado_136" data-name="Trazado 136" d="M113.83,32.611l1.582-1.722s1.754-.607,3.2,2.558a76.8,76.8,0,0,1,3.041,9.584L117.9,50.262l-2.919-1.254,2.919-5.976-3.107-4.468Z" transform="translate(-20.922 -11.911)" fill="#3f3d56"/>
  <ellipse id="Elipse_25" data-name="Elipse 25" cx="3.287" cy="3.287" rx="3.287" ry="3.287" transform="translate(85.366 12.1)" fill="#9e616a"/>
  <path id="Trazado_137" data-name="Trazado 137" d="M110.947,22.924l.156-.32-.82-.4a2.353,2.353,0,0,0-2.459-1.033c-1.64.4-2.32.648-2.32.648l-.82.4.4.4-.721.238.484.238-.557.328.3,1.64s.5-1.254,1.467-.82A4.592,4.592,0,0,0,108.774,24l1.525,2.959s.32-1.033.877-.762C111.193,26.244,112.627,23.956,110.947,22.924Z" transform="translate(-19.202 -10.159)" fill="#2f2e41"/>
  <path id="Trazado_138" data-name="Trazado 138" d="M37.547,93.2H.623A.123.123,0,0,1,.5,93.082.123.123,0,0,1,.623,93H37.514a.131.131,0,0,1,.131.123.123.123,0,0,1-.1.082Z" transform="translate(-0.5 -23.112)" fill="#cacaca"/>
  <path id="Trazado_139" data-name="Trazado 139" d="M117.106,93.2H88.823a.123.123,0,0,1,0-.246h28.283a.123.123,0,1,1,0,.246Z" transform="translate(-16.393 -23.103)" fill="#cacaca"/>
</svg>
