<svg xmlns="http://www.w3.org/2000/svg" width="415.451" height="309.063" viewBox="0 0 415.451 309.063">
  <g id="undraw_things_to_say_re_jpcg" transform="translate(0)">
    <path id="Trazado_11" data-name="Trazado 11" d="M520.178,293.151c12.223,10.228,25.85,1.665,38.91,1.011,6.056-.3,12.1,1.157,18.07,2.246a62.144,62.144,0,0,1,16.49,5.1,34.367,34.367,0,0,1,13.889,12.111c.683,1.068,1.714.279,1.706-1-.082-13.559-5.944-12.461-12.065-11.461-5.819.951-10.766-4.824-16.508-6.067a161.191,161.191,0,0,0-18.189-2.592q-9.931-.986-19.912-1.338-11.191-.395-22.39.009c-1.268.045-1.274,2.022,0,1.976Z" transform="translate(-364.712 -241.203)" fill="#3f3d56"/>
    <path id="Trazado_12" data-name="Trazado 12" d="M398.915,411.1a.988.988,0,0,1-1.4,1.4q-12.115-10.386-24.23-20.758a.119.119,0,0,0-.033-.026,14.956,14.956,0,0,1-1.588-1.377c-7.517-.876-15.778-3.775-23.6-5.033-6.911,1.028-13.8,2.253-20.732,3.162a137.149,137.149,0,0,1-18.222,1.3c-4.961-.026-3.525-12.743-8.025-15.088-4.677-2.437-14.057,5.451-15.256.523a47.639,47.639,0,0,1-1.153-7.675V351.462c.639-7,11.778-4.838,17.068-9.72,7.938-7.326,10.633-24.51,20.792-24.714a279.929,279.929,0,0,1,36.252,1.588c9.816,1.081,20.139,2.128,29.216,6.311,3.894,1.8,7.563,12.2,10.244,15.58a23.654,23.654,0,0,1,4.947,13.755c.481,10.6-4.341,20.3-6.983,30.3C393.922,393.228,392.631,403.729,398.915,411.1Z" transform="translate(-284.678 -250.073)" fill="#f2f2f2"/>
    <path id="Trazado_13" data-name="Trazado 13" d="M374.717,397.527Q387,408.055,399.285,418.578a.989.989,0,0,0,1.4-1.4c-6.284-7.366-4.993-17.867-2.7-26.535,2.645-10.008,7.467-19.7,6.984-30.3a23.619,23.619,0,0,0-4.949-13.757,27.734,27.734,0,0,0-10.241-7.673c-9.077-4.183-19.4-5.235-29.219-6.313a279.716,279.716,0,0,0-36.248-1.59c-10.161.209-22.048.394-29.986,7.722-7.229,6.673-8.216,17.168-8.147,26.433.04,5.368.143,10.882,1.419,16.121,1.2,4.925,3.8,9.721,8.48,12.158,4.5,2.344,9.847,2.38,14.8,2.4a135.585,135.585,0,0,0,18.221-1.308c12.083-1.581,24.051-4.134,36.232-4.9,2.981-.189,5.971-.273,8.957-.21a.989.989,0,0,0,0-1.976c-11.844-.248-23.566,1.786-35.219,3.639-11.271,1.792-22.794,3.481-34.235,2.574a20.8,20.8,0,0,1-7.279-1.684,13.134,13.134,0,0,1-5.435-4.8c-2.978-4.639-3.543-10.449-3.8-15.861a97.973,97.973,0,0,1,.13-14.059,30.266,30.266,0,0,1,3.911-13.05c5.508-8.93,16.645-12.646,26.15-11.042,10.7,1.807,18.89,10.362,35.223.747,5.127-3.018,11.845,1.182,17.728,2.069a77.773,77.773,0,0,1,12.962,2.934,33.073,33.073,0,0,1,11.166,5.935,20.779,20.779,0,0,1,6.859,11.325c2.268,10.183-2.228,20.347-5.2,29.876-2.648,8.494-4.908,18.47-1.342,27.041a20.579,20.579,0,0,0,3.378,5.478l1.4-1.4q-12.283-10.528-24.568-21.052c-.961-.824-2.365.568-1.4,1.4Z" transform="translate(-285.188 -254.846)" fill="#e6e6e6"/>
    <path id="Trazado_14" data-name="Trazado 14" d="M351.654,361.144h-29.79a1.031,1.031,0,1,1,0-2.061h29.79a1.031,1.031,0,0,1,0,2.061Z" transform="translate(-297.015 -264.445)" fill="#fff"/>
    <path id="Trazado_15" data-name="Trazado 15" d="M351.654,394.508h-29.79a1.031,1.031,0,1,1,0-2.061h29.79a1.031,1.031,0,0,1,0,2.061Z" transform="translate(-297.015 -275.829)" fill="#fff"/>
    <path id="Trazado_16" data-name="Trazado 16" d="M375.849,377.837H321.864a1.031,1.031,0,1,1,0-2.061h53.984a1.031,1.031,0,1,1,0,2.061Z" transform="translate(-297.015 -270.141)" fill="#fff"/>
    <path id="Trazado_17" data-name="Trazado 17" d="M447.526,491.2a.988.988,0,0,1-1.4,1.4q-12.115-10.386-24.23-20.758a.116.116,0,0,0-.033-.026,14.95,14.95,0,0,1-1.588-1.377c-7.517-.876-15.777-3.775-23.6-5.033-6.911,1.028-15.119,8.841-22.049,9.75a137.128,137.128,0,0,1-18.222,1.3c-4.961-.026-3.525-16.037-8.025-18.382-4.677-2.437-12.74,2.157-13.939-2.771-.613-2.51-3.637-5.086-3.835-7.675V431.556c.639-7,5.271-13.926,10.561-18.808,7.938-7.326,19.823-7.516,29.981-7.721a279.947,279.947,0,0,1,36.252,1.588c9.816,1.08,20.139,2.128,29.217,6.311a27.787,27.787,0,0,1,10.244,7.675,23.655,23.655,0,0,1,4.947,13.755c.481,10.6-4.341,20.3-6.983,30.3C442.533,473.323,441.241,483.823,447.526,491.2Z" transform="translate(-300.35 -280.101)" fill="#f2f2f2"/>
    <path id="Trazado_18" data-name="Trazado 18" d="M424.717,473.527Q437,484.054,449.285,494.578a.989.989,0,0,0,1.4-1.4c-6.284-7.366-4.993-17.868-2.7-26.535,2.645-10.008,7.467-19.7,6.984-30.3a23.617,23.617,0,0,0-4.949-13.757,27.734,27.734,0,0,0-10.241-7.673c-9.077-4.183-19.4-5.235-29.219-6.313a279.722,279.722,0,0,0-36.248-1.59c-10.161.209-22.048.394-29.985,7.722-7.229,6.673-8.216,17.168-8.147,26.433.04,5.368.143,10.882,1.419,16.121,1.2,4.925,3.8,9.721,8.48,12.158,4.5,2.344,9.847,2.38,14.8,2.4a135.566,135.566,0,0,0,18.221-1.308c12.083-1.581,24.051-4.134,36.232-4.9,2.981-.189,5.971-.273,8.957-.21a.989.989,0,0,0,0-1.977c-11.844-.247-23.566,1.787-35.219,3.639-11.271,1.792-22.794,3.481-34.234,2.574a20.8,20.8,0,0,1-7.279-1.684,13.133,13.133,0,0,1-5.435-4.8c-2.979-4.639-3.543-10.449-3.8-15.86a97.926,97.926,0,0,1,.13-14.059,30.266,30.266,0,0,1,3.911-13.049c5.508-8.93,18.066-16.292,26.15-11.042,9.236,6,21.048,6.258,35.223.747,5.545-2.156,11.845,1.182,17.728,2.069a77.761,77.761,0,0,1,12.962,2.934,33.071,33.071,0,0,1,11.166,5.935,20.78,20.78,0,0,1,6.859,11.325c2.268,10.183-2.228,20.347-5.2,29.876-2.648,8.494-4.908,18.47-1.342,27.041a20.578,20.578,0,0,0,3.377,5.477l1.4-1.4Q438.4,482.653,426.115,472.13c-.961-.824-2.365.568-1.4,1.4Z" transform="translate(-302.25 -280.779)" fill="#e6e6e6"/>
    <path id="Trazado_19" data-name="Trazado 19" d="M401.654,437.144h-29.79a1.031,1.031,0,1,1,0-2.061h29.79a1.031,1.031,0,1,1,0,2.061Z" transform="translate(-314.077 -290.378)" fill="#fff"/>
    <path id="Trazado_20" data-name="Trazado 20" d="M401.654,470.508h-29.79a1.031,1.031,0,1,1,0-2.061h29.79a1.031,1.031,0,0,1,0,2.061Z" transform="translate(-314.077 -301.763)" fill="#fff"/>
    <path id="Trazado_21" data-name="Trazado 21" d="M425.849,453.837H371.864a1.031,1.031,0,0,1,0-2.061h53.984a1.031,1.031,0,0,1,0,2.061Z" transform="translate(-314.077 -296.074)" fill="#fff"/>
    <path id="Trazado_22" data-name="Trazado 22" d="M709.965,588.353H626.714a2.88,2.88,0,0,1,0-5.761h83.251a2.88,2.88,0,1,1,0,5.761Z" transform="translate(-400.408 -340.712)" fill="#f2f2f2"/>
    <path id="Trazado_23" data-name="Trazado 23" d="M709.965,681.592H626.714a2.88,2.88,0,0,1,0-5.761h83.251a2.88,2.88,0,1,1,0,5.761Z" transform="translate(-400.408 -372.528)" fill="#f2f2f2"/>
    <path id="Trazado_24" data-name="Trazado 24" d="M777.579,635H626.714a2.88,2.88,0,0,1,0-5.761H777.579a2.88,2.88,0,0,1,0,5.761Z" transform="translate(-400.408 -356.631)" fill="#f2f2f2"/>
    <path id="Trazado_25" data-name="Trazado 25" d="M272.2,407.993l4.73,4.451,19.8-16.53-6.98-6.57Z" transform="translate(-92.882 -132.855)" fill="#ffb6b6"/>
    <path id="Trazado_26" data-name="Trazado 26" d="M559.573,650.589l-2.628-12.255,3.186-3.385-1.715-1.434-5.324-4.437-1.3-1.091L539.542,639l3.55,3.337,3.785-2.753-1.536,4.873,9.4,8.851a2.9,2.9,0,0,0,4.83-2.722Z" transform="translate(-371.645 -356.202)" fill="#2f2e41"/>
    <path id="Trazado_27" data-name="Trazado 27" d="M237.2,430.668l6.421.976,6.9-24.855-9.476-1.44Z" transform="translate(-80.94 -138.316)" fill="#ffb6b6"/>
    <path id="Trazado_28" data-name="Trazado 28" d="M537.289,668.481l-9.126-8.591.7-4.595-2.226-.206-6.9-.626-1.691-.158-3.82,16.023,4.818.729,1.55-4.415,1.505,4.882,12.766,1.941a2.9,2.9,0,0,0,2.428-4.985Z" transform="translate(-363.005 -365.183)" fill="#2f2e41"/>
    <path id="Trazado_29" data-name="Trazado 29" d="M583.977,391.189l18.415,32.981s-.768,67.83,1.679,70.346,4.663,4.772,2.447,4.752-1.5,16.026-1.5,16.026l-40.844,31.621-9.882-7.905,24.79-30.6-13.691-62.634s-9.836,59.233-11.609,61.005-2.842,1.76-.978,3.539,0,5.8,0,5.8l-19.432,40.331-10.54-1.329s1.827-32.925,8.191-47.059v-66.8c-.479,5.727,21.939-52.238,8.23-47.887C543.59,392,583.977,391.189,583.977,391.189Z" transform="translate(-365.943 -275.4)" fill="#374e9d"/>
    <path id="Trazado_30" data-name="Trazado 30" d="M579.31,271.88H564.086l-2.156,8.621-11.7,3.237s-5.789,38.393-.927,41.49,1.472,12.784,1.472,12.784-12.109,13.078-10.656,15.015,4.4-1.01.99,2.4-5.349,2.927-4.38,3.9a6.176,6.176,0,0,1,1.363,2.151l-4.178,10.878s22.189,4.408,33.329-1.889,35.842,5.812,35.842,5.812-1.271-6.358-2.331-7.3-3.531,1.434-1.811-1.69,3.173-1.67,1.72-3.123-7.75-20.827-7.75-20.827-4.843-10.656.485-15.015,7.357-18.657,7.357-18.657l-6.387-25.93-10.657-2.4Z" transform="translate(-369.723 -234.689)" fill="#e6e6e6"/>
    <path id="Trazado_31" data-name="Trazado 31" d="M506.281,412.868l3.656-14.655-8.08-3.257-3.315,15.632a5.056,5.056,0,1,0,7.738,2.28Z" transform="translate(-356.955 -276.686)" fill="#ffb6b6"/>
    <path id="Trazado_32" data-name="Trazado 32" d="M541.441,288.267l-.241-.041a14,14,0,0,0-12.42,4.048c-4.139,4.258-22.615,35.926-21.95,41.219.62,4.936.859,3.838-1.4,6.358s-3.116-1.317-3.151,3.929,1.97,5.2-.161,6.484-3.54.389-3.151,3.929a15.51,15.51,0,0,1-.333,5.716c-.126,1.237-3.185,9.176-3.185,9.176s9,2.418,12.635,6.038c0,0,.413-8.958,2.246-9.772s3.54-.389,3.025-2.692-3.162-3.322.08-3.242,8.249-17.16,8.249-17.16L543.34,302.75Z" transform="translate(-356.6 -240.197)" fill="#e6e6e6"/>
    <path id="Trazado_33" data-name="Trazado 33" d="M638.907,424.919l.65-15.09L648.23,409l-1.256,15.93a5.056,5.056,0,1,1-8.067-.008Z" transform="translate(-405.201 -281.477)" fill="#ffb6b6"/>
    <path id="Trazado_34" data-name="Trazado 34" d="M622.607,289.615l.243.029a14,14,0,0,1,10.762,7.4c2.761,5.257,11.5,40.865,9.357,45.752-1.995,4.557-1.912,3.436-.463,6.493s3.362-.38,1.907,4.661-3.364,4.429-1.685,6.263,3.284,1.377,1.907,4.661a15.518,15.518,0,0,0-1.3,5.576c-.23,1.222.452,9.7.452,9.7s-9.32-.235-13.829,2.206c0,0,2.145-8.708.618-10.007s-3.284-1.377-2.137-3.439,3.974-2.289.842-3.132-3.044-18.8-3.044-18.8l-9.558-44.025Z" transform="translate(-397.966 -240.74)" fill="#e6e6e6"/>
    <path id="Trazado_35" data-name="Trazado 35" d="M538.762,244.462c-.121,5.2,1.821,10.228,4.611,14.647a27.78,27.78,0,0,1,3.873-7.166,22.307,22.307,0,0,0,2.374,14.128,2.969,2.969,0,0,0,.254.163,8.755,8.755,0,0,0,7.616.934,17.082,17.082,0,0,1-1.468-20.7c1.206-1.744,2.767-3.286,3.514-5.27,1.18-3.166.046-6.652-.67-9.953-.669-3.072-.786-6.728,1.275-8.98a2.166,2.166,0,0,0-1.985-.914,4.1,4.1,0,0,0-2.785,2.422,17.655,17.655,0,0,1-1.8,3.381c-1.521,1.839-4.11,2.274-6.292,3.243C542,232.749,538.889,238.68,538.762,244.462Z" transform="translate(-371.377 -217.442)" fill="#2f2e41"/>
    <path id="Trazado_36" data-name="Trazado 36" d="M593.358,242.381c-.3-1.057,1.78,5.4.775,5.521-4.575.525-10.855,3.257-14.041,4.532-.144-.017-.287-.033-.426-.054-.342-.038-.675-.092-1-.154-7.419-1.4-10.272-12.8-10.272-12.9,0-.512,1.23-14.584,3.167-14.792a14.282,14.282,0,0,1,1.532-.083h4.807a22.322,22.322,0,0,1,3.018-.437h.008c9.677-.737,17.307,5.161,16.594,12.338,0,.008-.013.017-.017.025-.207.308-.389.6-.549.879-.156.262-.287.512-.4.75-.882,1.833,1.385,4.139-.118,4.57-2,.572,5.259,19.39-2.656,19.39C597.624,263.052,594.191,245.3,593.358,242.381Z" transform="translate(-381.488 -218.332)" fill="#2f2e41"/>
    <circle id="Elipse_2" data-name="Elipse 2" cx="11.381" cy="11.381" r="11.381" transform="translate(191.85 12.328)" fill="#ffb6b6"/>
    <path id="Trazado_37" data-name="Trazado 37" d="M595.961,236.853c-.19.1-.376.192-.565.283s-.4.192-.595.279c-3.811,1.729-6.913,1.92-8.795-.562a10.524,10.524,0,0,0-.865-3.791,6.092,6.092,0,0,1-1,3.791h-3.79c-3.9,2.591-5.908,2.862-3.2,11.367.755,2.37,3.759,16.162,2.577,18.207-.342-.037-3.979-15.144-4.308-15.206-7.419-1.4-12.133-13.627-11.53-14.318a12.744,12.744,0,0,1,1.321-5.669,13.039,13.039,0,0,1,4.954-5.39,22.971,22.971,0,0,1,3.959-1.487l.1-.025c.418-.112.844-.217,1.27-.3a23.39,23.39,0,0,1,2.667-.4c.063,0,.126-.008.186-.008a2.01,2.01,0,0,1,1.017.279s0,0,.008,0a2.009,2.009,0,0,1,.979,1.708h4.22q.234,0,.469.012a11.316,11.316,0,0,1,10.909,10.638C595.956,236.457,595.961,236.653,595.961,236.853Z" transform="translate(-379.934 -218.22)" fill="#2f2e41"/>
    <circle id="Elipse_3" data-name="Elipse 3" cx="7.498" cy="7.498" r="7.498" transform="translate(183.645 0)" fill="#2f2e41"/>
    <path id="Trazado_38" data-name="Trazado 38" d="M682.439,541.251a1.5,1.5,0,0,0,1.083-2.591l-.1-.407.04-.1a4.015,4.015,0,0,1,7.405.027c1.211,2.917,2.753,5.839,3.133,8.924a11.879,11.879,0,0,1-.208,4.085,47.621,47.621,0,0,0,4.331-19.777,46.039,46.039,0,0,0-.285-5.127q-.236-2.093-.655-4.157a48.168,48.168,0,0,0-9.553-20.415,12.819,12.819,0,0,1-5.331-5.531,9.773,9.773,0,0,1-.889-2.672c.259.034.979-3.919.783-4.161.362-.549,1.009-.822,1.4-1.357,1.965-2.664,4.671-2.2,6.085,1.421,3.019,1.523,3.048,4.05,1.2,6.48-1.178,1.546-1.341,3.638-2.374,5.293.106.136.217.268.323.4a48.47,48.47,0,0,1,5.06,8.017,20.159,20.159,0,0,1,1.2-9.361c1.152-2.778,3.31-5.118,5.211-7.52a4.136,4.136,0,0,1,7.368,2.031c0,.035.008.071.011.106q-.424.239-.829.507a2.028,2.028,0,0,0,.818,3.69l.041.006a20.107,20.107,0,0,1-.532,3.017c2.439,9.431-2.826,12.866-10.344,13.02-.166.085-.328.17-.494.251A49.482,49.482,0,0,1,699,527.891a46.956,46.956,0,0,1-.034,7.578l.013-.089a12.4,12.4,0,0,1,4.234-7.161c3.258-2.677,7.861-3.662,11.376-5.813a2.327,2.327,0,0,1,3.565,2.264l-.014.094a13.7,13.7,0,0,0-1.528.736q-.423.239-.829.507a2.028,2.028,0,0,0,.818,3.69l.042.006.085.013a20.193,20.193,0,0,1-3.714,5.817c-1.525,8.233-8.074,9.014-15.08,6.616h0a49.468,49.468,0,0,1-3.323,9.7H682.737c-.043-.132-.081-.268-.119-.4a13.5,13.5,0,0,0,3.285-.2c-.881-1.081-1.762-2.17-2.642-3.251a.746.746,0,0,1-.055-.064c-.447-.553-.9-1.1-1.345-1.655h0a19.743,19.743,0,0,1,.579-5.033Z" transform="translate(-420.054 -307.853)" fill="#f2f2f2"/>
    <path id="Trazado_39" data-name="Trazado 39" d="M419.652,682.81a.782.782,0,0,0,.784.784H745.4a.784.784,0,0,0,0-1.568H420.436a.782.782,0,0,0-.784.784Z" transform="translate(-330.735 -374.642)" fill="#ccc"/>
    <path id="Trazado_40" data-name="Trazado 40" d="M577.7,383.27c.917.967-.473,2.223-1.542,1.394Q562.787,374.3,549.412,363.94a.124.124,0,0,0-.036-.026,16.124,16.124,0,0,1-1.753-1.375c-8.3-.875-17.418-3.769-26.058-5.025-7.629,1.026-15.236,2.249-22.887,3.157a167.159,167.159,0,0,1-20.116,1.3c-5.476-.026-11.375-.059-16.342-2.4-5.164-2.434-8.037-7.222-9.36-12.142a43.358,43.358,0,0,1-1.273-7.662V323.726c.706-6.985,2.858-13.9,8.7-18.778,8.764-7.314,21.884-7.5,33.1-7.708a341.47,341.47,0,0,1,40.022,1.585c10.836,1.079,22.233,2.125,32.255,6.3a30.616,30.616,0,0,1,11.309,7.663,22.267,22.267,0,0,1,5.462,13.733c.531,10.583-4.793,20.264-7.709,30.255C572.191,365.427,570.765,375.91,577.7,383.27Z" transform="translate(-341.632 -243.321)" fill="#308ecd"/>
    <path id="Trazado_41" data-name="Trazado 41" d="M526.654,323.144H496.864a1.031,1.031,0,1,1,0-2.061h29.79a1.031,1.031,0,1,1,0,2.061Z" transform="translate(-356.73 -251.478)" fill="#fff"/>
    <path id="Trazado_42" data-name="Trazado 42" d="M526.654,356.508H496.864a1.031,1.031,0,1,1,0-2.061h29.79a1.031,1.031,0,1,1,0,2.061Z" transform="translate(-356.73 -262.863)" fill="#fff"/>
    <path id="Trazado_43" data-name="Trazado 43" d="M550.849,339.837H496.864a1.031,1.031,0,1,1,0-2.061h53.984a1.031,1.031,0,1,1,0,2.061Z" transform="translate(-356.73 -257.174)" fill="#fff"/>
    <path id="Trazado_44" data-name="Trazado 44" d="M636.45,324.6a23.665,23.665,0,0,1,3.845,14.7c-.413,4.51-2.263,8.752-4.285,12.749-2.1,4.142-4.443,8.165-6.157,12.49a31,31,0,0,0-2.025,14.864c.339,3.276,1,6.507,1.622,9.738l1.9,9.862,1.652-.961-27.324-23.623c-.958-.828-2.362.564-1.4,1.4l27.324,23.622a1,1,0,0,0,1.651-.961c-1.117-5.794-2.436-11.591-3.254-17.437a32.827,32.827,0,0,1-.2-8.911,29.723,29.723,0,0,1,1.771-6.6c3.277-8.564,9.415-16.055,10.6-25.365a25.332,25.332,0,0,0-4.019-16.566c-.674-1.075-2.385-.084-1.707,1Z" transform="translate(-393.625 -252.179)" fill="#3f3d56"/>
    <path id="Trazado_45" data-name="Trazado 45" d="M556.948,354.9l-40.411,4.781-20.205,2.39c-6.156.728-12.571,1.751-18.721.462-10.355-2.169-16.784-11.552-18.807-21.44-1.252-6.121-.809-12.525.244-18.641.562-3.26,1.3-6.486,2.1-9.7a49.348,49.348,0,0,1,2.479-8.631,15.983,15.983,0,0,1,10.605-8.927,31.544,31.544,0,0,1,4.4-.583q2.493-.25,4.99-.461,4.993-.421,10-.681,2.5-.13,5.006-.221c1.268-.047,1.274-2.023,0-1.976q-10.419.381-20.8,1.445a21.353,21.353,0,0,0-7.97,2.03,17.622,17.622,0,0,0-5.667,4.7,19.069,19.069,0,0,0-3.4,6.78c-.909,3.275-1.735,6.582-2.488,9.9-1.518,6.68-2.609,13.566-2.1,20.433.75,10.158,5.613,20.995,15.05,25.831,5.573,2.856,11.933,2.984,18.04,2.438,6.811-.608,13.6-1.56,20.392-2.363l42.04-4.973,5.214-.617c1.248-.148,1.263-2.126,0-1.976Z" transform="translate(-343.167 -241.308)" fill="#3f3d56"/>
  </g>
</svg>
