<svg xmlns="http://www.w3.org/2000/svg" width="29.833" height="32.115" viewBox="0 0 29.833 32.115">
  <g id="Group_222" data-name="Group 222" transform="translate(0.25 0.254)">
    <path id="Trazado_190" data-name="Trazado 190" d="M14.181,4.986V8.972h3.986a3.986,3.986,0,1,0-3.986-3.986Zm0,0V8.972H10.194a3.986,3.986,0,1,1,3.986-3.986Z" transform="translate(0.486)" fill="none" stroke="#fff" stroke-linecap="round" stroke-miterlimit="10" stroke-width="2.5"/>
    <path id="Trazado_191" data-name="Trazado 191" d="M26.056,8.292H3.278A2.278,2.278,0,0,0,1,10.569v3.417a2.278,2.278,0,0,0,2.278,2.278H26.056a2.278,2.278,0,0,0,2.278-2.278V10.569A2.278,2.278,0,0,0,26.056,8.292Z" transform="translate(0 0.681)" fill="none" stroke="#fff" stroke-linecap="round" stroke-linejoin="round" stroke-width="2.5"/>
    <path id="Trazado_192" data-name="Trazado 192" d="M25.861,16.264v10.25a3.417,3.417,0,0,1-3.417,3.417H6.5a3.417,3.417,0,0,1-3.417-3.417V16.264M14.472,8.292V29.93" transform="translate(0.194 0.681)" fill="none" stroke="#fff" stroke-linecap="round" stroke-linejoin="round" stroke-width="2.5"/>
  </g>
</svg>
