<svg xmlns="http://www.w3.org/2000/svg" width="35.27" height="33.792" viewBox="0 0 35.27 33.792">
  <path id="icon_Tarifas" d="M18.208,27.613l7.761,4.918a1.281,1.281,0,0,0,1.921-1.46l-2.241-8.825a1.358,1.358,0,0,1,.435-1.358L33.039,15.1a1.281,1.281,0,0,0-.73-2.357l-9.081-.589a1.281,1.281,0,0,1-.679-.243,1.383,1.383,0,0,1-.435-.576L18.72,2.818a1.281,1.281,0,0,0-2.382,0l-3.394,8.53a1.383,1.383,0,0,1-.435.576,1.281,1.281,0,0,1-.679.243l-9.081.589a1.281,1.281,0,0,0-.73,2.357L8.973,20.9a1.358,1.358,0,0,1,.435,1.358L7.283,30.444A1.55,1.55,0,0,0,9.588,32.2l7.262-4.585A1.281,1.281,0,0,1,18.208,27.613Z" transform="translate(0.106 -0.508)" fill="none" stroke="#fff" stroke-linecap="round" stroke-linejoin="round" stroke-width="3"/>
</svg>
